<svg width="47" height="42" viewBox="0 0 47 42" fill="none" xmlns="http://www.w3.org/2000/svg">
<path d="M9.76562 36.7188C11.1654 36.7188 12.3617 36.2223 13.3545 35.2295C14.3473 34.2367 14.8438 33.0404 14.8438 31.6406C14.8438 30.2409 14.3473 29.0446 13.3545 28.0518C12.3617 27.0589 11.1654 26.5625 9.76562 26.5625C8.36589 26.5625 7.1696 27.0589 6.17676 28.0518C5.18392 29.0446 4.6875 30.2409 4.6875 31.6406C4.6875 33.0404 5.18392 34.2367 6.17676 35.2295C7.1696 36.2223 8.36589 36.7188 9.76562 36.7188ZM9.76562 28.125C10.7422 28.125 11.5723 28.4668 12.2559 29.1504C12.9395 29.834 13.2812 30.6641 13.2812 31.6406C13.2812 32.6172 12.9395 33.4473 12.2559 34.1309C11.5723 34.8145 10.7422 35.1562 9.76562 35.1562C8.78906 35.1562 7.95898 34.8145 7.27539 34.1309C6.5918 33.4473 6.25 32.6172 6.25 31.6406C6.25 30.6641 6.5918 29.834 7.27539 29.1504C7.95898 28.4668 8.78906 28.125 9.76562 28.125ZM36.8164 37.5C37.6953 37.5 38.4521 37.1826 39.0869 36.5479C39.7217 35.9131 40.0391 35.1562 40.0391 34.2773C40.0391 33.3984 39.7217 32.6416 39.0869 32.0068C38.4521 31.3721 37.6953 31.0547 36.8164 31.0547C35.9375 31.0547 35.1807 31.3721 34.5459 32.0068C33.9111 32.6416 33.5938 33.3984 33.5938 34.2773C33.5938 35.1562 33.9111 35.9131 34.5459 36.5479C35.1807 37.1826 35.9375 37.5 36.8164 37.5ZM36.8164 32.6172C37.2721 32.6172 37.6628 32.7799 37.9883 33.1055C38.3138 33.431 38.4766 33.8216 38.4766 34.2773C38.4766 34.7331 38.3138 35.1237 37.9883 35.4492C37.6628 35.7747 37.2721 35.9375 36.8164 35.9375C36.3607 35.9375 35.9701 35.7747 35.6445 35.4492C35.319 35.1237 35.1562 34.7331 35.1562 34.2773C35.1562 33.8216 35.319 33.431 35.6445 33.1055C35.9701 32.7799 36.3607 32.6172 36.8164 32.6172ZM44.5312 29.6875H43.75V23.291C43.75 22.054 43.3024 20.988 42.4072 20.0928C41.512 19.1976 40.446 18.75 39.209 18.75H35.1562V15.625C35.1562 15.3971 35.083 15.21 34.9365 15.0635C34.79 14.917 34.6029 14.8438 34.375 14.8438H33.5938V11.377L35.5957 10.0098C35.6934 9.94466 35.7747 9.85514 35.8398 9.74121C35.9049 9.62728 35.9375 9.50521 35.9375 9.375C35.9375 9.14714 35.8643 8.95996 35.7178 8.81348C35.5713 8.66699 35.3841 8.59375 35.1562 8.59375C35.0586 8.59375 34.9772 8.60189 34.9121 8.61816C34.847 8.63444 34.7819 8.67513 34.7168 8.74023L32.373 10.3027C32.2754 10.3678 32.194 10.4574 32.1289 10.5713C32.0638 10.6852 32.0312 10.8073 32.0312 10.9375V14.8438H31.25C31.0221 14.8438 30.835 14.917 30.6885 15.0635C30.542 15.21 30.4688 15.3971 30.4688 15.625V18.75H28.7109L24.4629 4.63867C24.6257 4.57357 24.7559 4.47591 24.8535 4.3457C24.9512 4.2155 25 4.06901 25 3.90625V2.14844C25 1.5625 24.7884 1.05794 24.3652 0.634766C23.9421 0.21159 23.4375 0 22.8516 0H8.39844C7.8125 0 7.30794 0.21159 6.88477 0.634766C6.46159 1.05794 6.25 1.5625 6.25 2.14844V3.90625C6.25 4.10156 6.30697 4.26432 6.4209 4.39453C6.53483 4.52474 6.67318 4.60612 6.83594 4.63867L3.95508 16.8457L0.195312 21.3867C0.130208 21.4518 0.0813802 21.5251 0.0488281 21.6064C0.016276 21.6878 0 21.7773 0 21.875C0 22.1029 0.0732422 22.29 0.219727 22.4365C0.366211 22.583 0.553385 22.6562 0.78125 22.6562H4.6875C4.78516 22.6562 4.88281 22.6318 4.98047 22.583C5.07812 22.5342 5.15951 22.4772 5.22461 22.4121L6.15234 21.5332L6.68945 22.4121C4.73633 23.0632 3.13314 24.2269 1.87988 25.9033C0.626628 27.5798 0 29.4922 0 31.6406C0 33.0078 0.260417 34.2773 0.78125 35.4492C1.26953 36.6211 1.96126 37.6546 2.85645 38.5498C3.75163 39.445 4.78516 40.1367 5.95703 40.625C7.12891 41.1458 8.39844 41.4062 9.76562 41.4062C11.9792 41.4062 13.9404 40.7471 15.6494 39.4287C17.3584 38.1104 18.5059 36.4421 19.0918 34.4238L19.1406 34.375H29.6875C29.7201 36.3281 30.4281 37.9883 31.8115 39.3555C33.195 40.7227 34.8633 41.4062 36.8164 41.4062C38.7695 41.4062 40.4378 40.7227 41.8213 39.3555C43.2048 37.9883 43.9128 36.3281 43.9453 34.375H44.5312C45.1823 34.375 45.7357 34.1471 46.1914 33.6914C46.6471 33.2357 46.875 32.6823 46.875 32.0312C46.875 31.3802 46.6471 30.8268 46.1914 30.3711C45.7357 29.9154 45.1823 29.6875 44.5312 29.6875ZM39.209 20.3125C40.0228 20.3125 40.7227 20.6055 41.3086 21.1914C41.8945 21.7773 42.1875 22.4772 42.1875 23.291V29.6387C41.5365 28.89 40.7471 28.2878 39.8193 27.832C38.8916 27.3763 37.8906 27.1484 36.8164 27.1484C36.5234 27.1484 36.2305 27.1647 35.9375 27.1973C35.6445 27.2298 35.3678 27.2949 35.1074 27.3926L35.1562 27.3438V20.3125H39.209ZM32.0312 16.4062H33.5938V27.9297C33.3008 28.0924 33.0241 28.2633 32.7637 28.4424C32.5033 28.6214 32.2591 28.8086 32.0312 29.0039V16.4062ZM27.0508 32.8125L25.3906 29.6875H27.3438V32.8125H27.0508ZM5.66406 16.4062L8.44727 4.6875H10.1562V16.4062H5.66406ZM11.7188 4.6875H13.2812V16.4062H11.7188V4.6875ZM14.8438 4.6875H22.8516L27.0508 18.75H25.5859C25.5534 18.75 25.5208 18.75 25.4883 18.75C25.4557 18.75 25.4395 18.75 25.4395 18.75L24.3164 17.0898L24.707 16.8457C24.8047 16.7806 24.8779 16.6911 24.9268 16.5771C24.9756 16.4632 25 16.3411 25 16.2109C25 15.9831 24.9268 15.7959 24.7803 15.6494C24.6338 15.5029 24.4466 15.4297 24.2188 15.4297C24.1211 15.4297 24.0316 15.446 23.9502 15.4785C23.8688 15.5111 23.7956 15.5436 23.7305 15.5762L21.3867 17.334C21.2891 17.3991 21.2158 17.4886 21.167 17.6025C21.1182 17.7165 21.0938 17.8385 21.0938 17.9688C21.0938 18.1966 21.167 18.3838 21.3135 18.5303C21.46 18.6768 21.6471 18.75 21.875 18.75C21.9727 18.75 22.0622 18.7337 22.1436 18.7012C22.2249 18.6686 22.2982 18.6361 22.3633 18.6035L23.0957 18.0664L23.877 19.2871C23.5189 19.5475 23.2259 19.8893 22.998 20.3125C22.7702 20.7357 22.6562 21.1914 22.6562 21.6797V24.4629L18.6523 16.8457C18.5872 16.7155 18.4977 16.6097 18.3838 16.5283C18.2699 16.4469 18.1315 16.4062 17.9688 16.4062H14.8438V4.6875ZM25.5859 20.3125H27.3438V21.875H24.2188V21.6797C24.2188 21.2891 24.349 20.9635 24.6094 20.7031C24.8698 20.4427 25.1953 20.3125 25.5859 20.3125ZM24.2188 23.4375H27.3438V25H24.2188V23.4375ZM24.2188 27.4414C24.2188 27.4089 24.2188 27.3844 24.2188 27.3682C24.2188 27.3519 24.2188 27.3438 24.2188 27.3438V26.5625H27.3438V28.125H24.5605L24.2188 27.4414ZM7.8125 2.14844C7.8125 1.98568 7.86947 1.84733 7.9834 1.7334C8.09733 1.61946 8.23568 1.5625 8.39844 1.5625H22.8516C23.0143 1.5625 23.1527 1.61946 23.2666 1.7334C23.3805 1.84733 23.4375 1.98568 23.4375 2.14844V3.125H7.8125V2.14844ZM1.66016 32.8613L3.61328 31.543C3.74349 31.4453 3.84115 31.3395 3.90625 31.2256C3.97135 31.1117 4.00391 30.9896 4.00391 30.8594C4.00391 30.6641 3.92253 30.485 3.75977 30.3223C3.59701 30.1595 3.41797 30.0781 3.22266 30.0781C3.125 30.0781 3.04362 30.0944 2.97852 30.127C2.91341 30.1595 2.84831 30.1921 2.7832 30.2246L1.61133 31.0059C1.67643 30.1921 1.84733 29.4271 2.12402 28.7109C2.40072 27.9948 2.76693 27.3438 3.22266 26.7578H3.17383L5.51758 27.2461C5.55013 27.2461 5.57454 27.2461 5.59082 27.2461C5.6071 27.2461 5.63151 27.2461 5.66406 27.2461C5.89193 27.2461 6.0791 27.1729 6.22559 27.0264C6.37207 26.8799 6.44531 26.6927 6.44531 26.4648C6.44531 26.2695 6.38835 26.0986 6.27441 25.9521C6.16048 25.8057 6.00586 25.7161 5.81055 25.6836L4.44336 25.4395C4.99674 24.9512 5.62337 24.5443 6.32324 24.2188C7.02311 23.8932 7.7474 23.6654 8.49609 23.5352H8.54492L9.86328 25.5371C9.96094 25.6348 10.0667 25.7161 10.1807 25.7812C10.2946 25.8464 10.4167 25.8789 10.5469 25.8789C10.7422 25.8789 10.9212 25.8057 11.084 25.6592C11.2467 25.5127 11.3281 25.3255 11.3281 25.0977C11.3281 25 11.3118 24.9186 11.2793 24.8535C11.2467 24.7884 11.2142 24.7233 11.1816 24.6582L10.4004 23.4863C11.2142 23.5514 11.9792 23.7223 12.6953 23.999C13.4115 24.2757 14.0625 24.6419 14.6484 25.0977L14.1602 27.3926C14.1602 27.4251 14.1602 27.4577 14.1602 27.4902C14.1602 27.5228 14.1602 27.5553 14.1602 27.5879C14.1602 27.7832 14.2334 27.9622 14.3799 28.125C14.5264 28.2878 14.7135 28.3691 14.9414 28.3691C15.1367 28.3691 15.3076 28.304 15.4541 28.1738C15.6006 28.0436 15.6901 27.8971 15.7227 27.7344L15.9668 26.3184C16.4551 26.9043 16.862 27.5391 17.1875 28.2227C17.513 28.9062 17.7409 29.6387 17.8711 30.4199V30.4688L15.8691 31.7871C15.7715 31.8522 15.6901 31.9417 15.625 32.0557C15.5599 32.1696 15.5273 32.2917 15.5273 32.4219C15.5273 32.6497 15.6006 32.8369 15.7471 32.9834C15.8936 33.1299 16.0807 33.2031 16.3086 33.2031C16.3737 33.2031 16.4469 33.195 16.5283 33.1787C16.6097 33.1624 16.6829 33.138 16.748 33.1055L17.9199 32.2754C17.8548 33.0892 17.6839 33.8542 17.4072 34.5703C17.1305 35.2865 16.7643 35.9538 16.3086 36.5723V36.5234L14.0137 36.084C13.9811 36.084 13.9486 36.0758 13.916 36.0596C13.8835 36.0433 13.8509 36.0352 13.8184 36.0352C13.623 36.0352 13.444 36.1165 13.2812 36.2793C13.1185 36.4421 13.0371 36.6211 13.0371 36.8164C13.0371 37.0117 13.1022 37.1826 13.2324 37.3291C13.3626 37.4756 13.5091 37.5651 13.6719 37.5977L15.0879 37.8906C14.502 38.3789 13.8672 38.7777 13.1836 39.0869C12.5 39.3962 11.7676 39.6159 10.9863 39.7461H10.9375L9.61914 37.793C9.55404 37.6628 9.46452 37.5651 9.35059 37.5C9.23665 37.4349 9.11458 37.4023 8.98438 37.4023C8.75651 37.4023 8.56934 37.4837 8.42285 37.6465C8.27637 37.8092 8.20312 37.9883 8.20312 38.1836C8.20312 38.2812 8.21126 38.3626 8.22754 38.4277C8.24382 38.4928 8.26823 38.5579 8.30078 38.623L9.13086 39.7949C8.31706 39.7298 7.55208 39.5589 6.83594 39.2822C6.11979 39.0055 5.45247 38.6393 4.83398 38.1836L4.88281 38.2324L5.32227 35.8887C5.32227 35.8561 5.3304 35.8317 5.34668 35.8154C5.36296 35.7992 5.37109 35.7747 5.37109 35.7422C5.37109 35.5143 5.28971 35.3271 5.12695 35.1807C4.96419 35.0342 4.78516 34.9609 4.58984 34.9609C4.39453 34.9609 4.22363 35.0179 4.07715 35.1318C3.93066 35.2458 3.84115 35.4004 3.80859 35.5957L3.51562 36.9629C3.02734 36.4095 2.62858 35.7829 2.31934 35.083C2.01009 34.3831 1.79036 33.6589 1.66016 32.9102V32.8613ZM9.76562 21.875C9.50521 21.875 9.25293 21.8913 9.00879 21.9238C8.76465 21.9564 8.51237 21.9889 8.25195 22.0215H8.30078L7.71484 21.0938H15.918L22.1191 32.8125H19.4336C19.4661 32.6497 19.4906 32.4707 19.5068 32.2754C19.5231 32.0801 19.5312 31.8685 19.5312 31.6406C19.5312 30.306 19.2708 29.0365 18.75 27.832C18.2292 26.6602 17.5293 25.6348 16.6504 24.7559C15.7715 23.877 14.7461 23.1771 13.5742 22.6562C12.3698 22.1354 11.1003 21.875 9.76562 21.875ZM23.9258 32.8125L17.0898 19.9707C17.0247 19.8405 16.9352 19.7347 16.8213 19.6533C16.7074 19.5719 16.569 19.5312 16.4062 19.5312H6.25C6.15234 19.5312 6.05469 19.5557 5.95703 19.6045C5.85938 19.6533 5.77799 19.7103 5.71289 19.7754L4.3457 21.0938H2.44141L5.0293 17.9688H17.4805L25.293 32.8125H23.9258ZM28.9062 20.3125H30.4688V31.0547C30.3385 31.3151 30.2165 31.5918 30.1025 31.8848C29.9886 32.1777 29.8991 32.4707 29.834 32.7637V32.8125H28.9062V20.3125ZM31.3965 35.4492L32.373 34.7656C32.4707 34.668 32.5521 34.5703 32.6172 34.4727C32.6823 34.375 32.7148 34.2611 32.7148 34.1309C32.7148 33.903 32.6416 33.7158 32.4951 33.5693C32.3486 33.4229 32.1615 33.3496 31.9336 33.3496C31.8685 33.3496 31.7952 33.3577 31.7139 33.374C31.6325 33.3903 31.5592 33.4147 31.4941 33.4473L31.2988 33.5938C31.3639 33.1706 31.4697 32.7637 31.6162 32.373C31.7627 31.9824 31.9499 31.6081 32.1777 31.25H32.1289L33.3496 31.4941C33.3822 31.4941 33.4066 31.4941 33.4229 31.4941C33.4391 31.4941 33.4635 31.4941 33.4961 31.4941C33.724 31.4941 33.9111 31.4209 34.0576 31.2744C34.2041 31.1279 34.2773 30.9408 34.2773 30.7129C34.2773 30.5176 34.2122 30.3467 34.082 30.2002C33.9518 30.0537 33.8053 29.9642 33.6426 29.9316L33.3984 29.8828C33.724 29.6549 34.0658 29.4515 34.4238 29.2725C34.7819 29.0934 35.1725 28.9551 35.5957 28.8574H35.6445L36.3281 29.8828C36.4258 29.9805 36.5234 30.0618 36.6211 30.127C36.7188 30.1921 36.8327 30.2246 36.9629 30.2246C37.1908 30.2246 37.3779 30.1432 37.5244 29.9805C37.6709 29.8177 37.7441 29.6387 37.7441 29.4434C37.7441 29.3457 37.736 29.2562 37.7197 29.1748C37.7034 29.0934 37.679 29.0202 37.6465 28.9551L37.5 28.7598C37.9232 28.8249 38.3301 28.9307 38.7207 29.0771C39.1113 29.2236 39.4857 29.4108 39.8438 29.6387L39.5996 30.8105C39.5996 30.8431 39.5996 30.8757 39.5996 30.9082C39.5996 30.9408 39.5996 30.957 39.5996 30.957C39.5996 31.1849 39.6729 31.3721 39.8193 31.5186C39.9658 31.665 40.153 31.7383 40.3809 31.7383C40.5762 31.7383 40.7471 31.6813 40.8936 31.5674C41.04 31.4535 41.1296 31.2988 41.1621 31.1035L41.2109 30.8594C41.4388 31.1849 41.6423 31.5348 41.8213 31.9092C42.0003 32.2835 42.1387 32.666 42.2363 33.0566V33.1055L41.2109 33.8379C41.1133 33.903 41.0319 33.9925 40.9668 34.1064C40.9017 34.2204 40.8691 34.3424 40.8691 34.4727C40.8691 34.668 40.9505 34.847 41.1133 35.0098C41.276 35.1725 41.4551 35.2539 41.6504 35.2539C41.748 35.2539 41.8376 35.2376 41.9189 35.2051C42.0003 35.1725 42.0736 35.14 42.1387 35.1074L42.334 34.9609C42.2689 35.4167 42.1631 35.8398 42.0166 36.2305C41.8701 36.6211 41.6829 36.9792 41.4551 37.3047L40.2832 37.0605C40.2507 37.0605 40.2262 37.0605 40.21 37.0605C40.1937 37.0605 40.1693 37.0605 40.1367 37.0605C39.9089 37.0605 39.7217 37.1419 39.5752 37.3047C39.4287 37.4674 39.3555 37.6465 39.3555 37.8418C39.3555 38.0371 39.4124 38.208 39.5264 38.3545C39.6403 38.501 39.7949 38.5905 39.9902 38.623L40.2344 38.6719C39.9089 38.8997 39.5589 39.1032 39.1846 39.2822C38.8102 39.4613 38.4277 39.5996 38.0371 39.6973H37.9883L37.2559 38.7207C37.1908 38.623 37.1012 38.5417 36.9873 38.4766C36.8734 38.4115 36.7513 38.3789 36.6211 38.3789C36.4258 38.3789 36.2467 38.4521 36.084 38.5986C35.9212 38.7451 35.8398 38.9323 35.8398 39.1602C35.8398 39.2253 35.8561 39.2985 35.8887 39.3799C35.9212 39.4613 35.9538 39.5345 35.9863 39.5996L36.1328 39.7949C35.6771 39.7298 35.2539 39.624 34.8633 39.4775C34.4727 39.3311 34.1146 39.1439 33.7891 38.916V38.9648L34.0332 37.7441C34.0332 37.7116 34.0332 37.6872 34.0332 37.6709C34.0332 37.6546 34.0332 37.6302 34.0332 37.5977C34.0332 37.4023 33.9518 37.2233 33.7891 37.0605C33.6263 36.8978 33.4473 36.8164 33.252 36.8164C33.0566 36.8164 32.8857 36.8815 32.7393 37.0117C32.5928 37.1419 32.5033 37.2884 32.4707 37.4512L32.4219 37.6953C32.194 37.4023 31.9906 37.0687 31.8115 36.6943C31.6325 36.32 31.4941 35.9212 31.3965 35.498V35.4492ZM44.5312 32.8125H43.7988C43.7337 32.5195 43.6523 32.2428 43.5547 31.9824C43.457 31.722 43.3431 31.4616 43.2129 31.2012L43.2617 31.25H44.5312C44.7591 31.25 44.9463 31.3232 45.0928 31.4697C45.2393 31.6162 45.3125 31.8034 45.3125 32.0312C45.3125 32.2591 45.2393 32.4463 45.0928 32.5928C44.9463 32.7393 44.7591 32.8125 44.5312 32.8125ZM37.5 25C37.7279 25 37.915 24.9268 38.0615 24.7803C38.208 24.6338 38.2812 24.4466 38.2812 24.2188V22.6562C38.2812 22.4284 38.208 22.2412 38.0615 22.0947C37.915 21.9482 37.7279 21.875 37.5 21.875C37.2721 21.875 37.085 21.9482 36.9385 22.0947C36.792 22.2412 36.7188 22.4284 36.7188 22.6562V24.2188C36.7188 24.4466 36.792 24.6338 36.9385 24.7803C37.085 24.9268 37.2721 25 37.5 25ZM39.8438 25C40.0716 25 40.2588 24.9268 40.4053 24.7803C40.5518 24.6338 40.625 24.4466 40.625 24.2188V22.6562C40.625 22.4284 40.5518 22.2412 40.4053 22.0947C40.2588 21.9482 40.0716 21.875 39.8438 21.875C39.6159 21.875 39.4287 21.9482 39.2822 22.0947C39.1357 22.2412 39.0625 22.4284 39.0625 22.6562V24.2188C39.0625 24.4466 39.1357 24.6338 39.2822 24.7803C39.4287 24.9268 39.6159 25 39.8438 25Z" fill="white"/>
</svg>
