<svg width="79" height="79" viewBox="0 0 79 79" fill="none" xmlns="http://www.w3.org/2000/svg">
<path d="M21 76.125H18.6211C16.9805 76.125 15.5449 75.5918 14.3145 74.5254C13.084 73.459 12.3594 72.1328 12.1406 70.5469V70.4648L8.61328 45.7734C8.55859 45.4453 8.4082 45.1719 8.16211 44.9531C7.91602 44.7344 7.62891 44.625 7.30078 44.625C6.97266 44.625 6.67188 44.748 6.39844 44.9941C6.125 45.2402 5.98828 45.5547 5.98828 45.9375C5.98828 45.9922 5.98828 46.0332 5.98828 46.0605C5.98828 46.0879 5.98828 46.1016 5.98828 46.1016L9.51562 70.875C9.89844 73.1172 10.9375 74.9902 12.6328 76.4941C14.3281 77.998 16.3242 78.75 18.6211 78.75H21C21.3828 78.75 21.6973 78.627 21.9434 78.3809C22.1895 78.1348 22.3125 77.8203 22.3125 77.4375C22.3125 77.0547 22.1895 76.7402 21.9434 76.4941C21.6973 76.248 21.3828 76.125 21 76.125ZM36.75 63C36.3672 63 36.0527 63.123 35.8066 63.3691C35.5605 63.6152 35.4375 63.9297 35.4375 64.3125V69.5625C35.4375 70.6562 35.8203 71.5859 36.5859 72.3516C37.3516 73.1172 38.2812 73.5 39.375 73.5C40.4688 73.5 41.3984 73.1172 42.1641 72.3516C42.9297 71.5859 43.3125 70.6562 43.3125 69.5625V53.8125C43.3125 52.7188 42.9297 51.7891 42.1641 51.0234C41.3984 50.2578 40.4688 49.875 39.375 49.875C38.2812 49.875 37.3516 50.2578 36.5859 51.0234C35.8203 51.7891 35.4375 52.7188 35.4375 53.8125V59.0625C35.4375 59.4453 35.5605 59.7598 35.8066 60.0059C36.0527 60.252 36.3672 60.375 36.75 60.375C37.1328 60.375 37.4473 60.252 37.6934 60.0059C37.9395 59.7598 38.0625 59.4453 38.0625 59.0625V53.8125C38.0625 53.4297 38.1855 53.1152 38.4316 52.8691C38.6777 52.623 38.9922 52.5 39.375 52.5C39.7578 52.5 40.0723 52.623 40.3184 52.8691C40.5645 53.1152 40.6875 53.4297 40.6875 53.8125V69.5625C40.6875 69.9453 40.5645 70.2598 40.3184 70.5059C40.0723 70.752 39.7578 70.875 39.375 70.875C38.9922 70.875 38.6777 70.752 38.4316 70.5059C38.1855 70.2598 38.0625 69.9453 38.0625 69.5625V64.3125C38.0625 63.9297 37.9395 63.6152 37.6934 63.3691C37.4473 63.123 37.1328 63 36.75 63ZM18.375 49.875C17.2812 49.875 16.3516 50.2578 15.5859 51.0234C14.8203 51.7891 14.4375 52.7188 14.4375 53.8125V69.5625C14.4375 70.6562 14.8203 71.5859 15.5859 72.3516C16.3516 73.1172 17.2812 73.5 18.375 73.5C19.4688 73.5 20.3984 73.1172 21.1641 72.3516C21.9297 71.5859 22.3125 70.6562 22.3125 69.5625V53.8125C22.3125 52.7188 21.9297 51.7891 21.1641 51.0234C20.3984 50.2578 19.4688 49.875 18.375 49.875ZM19.6875 69.5625C19.6875 69.9453 19.5645 70.2598 19.3184 70.5059C19.0723 70.752 18.7578 70.875 18.375 70.875C17.9922 70.875 17.6777 70.752 17.4316 70.5059C17.1855 70.2598 17.0625 69.9453 17.0625 69.5625V53.8125C17.0625 53.4297 17.1855 53.1152 17.4316 52.8691C17.6777 52.623 17.9922 52.5 18.375 52.5C18.7578 52.5 19.0723 52.623 19.3184 52.8691C19.5645 53.1152 19.6875 53.4297 19.6875 53.8125V69.5625ZM24.9375 53.8125V69.5625C24.9375 70.6562 25.3203 71.5859 26.0859 72.3516C26.8516 73.1172 27.7812 73.5 28.875 73.5C29.9688 73.5 30.8984 73.1172 31.6641 72.3516C32.4297 71.5859 32.8125 70.6562 32.8125 69.5625V53.8125C32.8125 52.7188 32.4297 51.7891 31.6641 51.0234C30.8984 50.2578 29.9688 49.875 28.875 49.875C27.7812 49.875 26.8516 50.2578 26.0859 51.0234C25.3203 51.7891 24.9375 52.7188 24.9375 53.8125ZM30.1875 53.8125V69.5625C30.1875 69.9453 30.0645 70.2598 29.8184 70.5059C29.5723 70.752 29.2578 70.875 28.875 70.875C28.4922 70.875 28.1777 70.752 27.9316 70.5059C27.6855 70.2598 27.5625 69.9453 27.5625 69.5625V53.8125C27.5625 53.4297 27.6855 53.1152 27.9316 52.8691C28.1777 52.623 28.4922 52.5 28.875 52.5C29.2578 52.5 29.5723 52.623 29.8184 52.8691C30.0645 53.1152 30.1875 53.4297 30.1875 53.8125ZM57.75 47.25C58.1328 47.25 58.4473 47.127 58.6934 46.8809C58.9395 46.6348 59.0625 46.3203 59.0625 45.9375C59.0625 45.5547 58.9395 45.2402 58.6934 44.9941C58.4473 44.748 58.1328 44.625 57.75 44.625H48.5625C48.1797 44.625 47.8652 44.748 47.6191 44.9941C47.373 45.2402 47.25 45.5547 47.25 45.9375C47.25 46.3203 47.373 46.6348 47.6191 46.8809C47.8652 47.127 48.1797 47.25 48.5625 47.25H57.75ZM30.1875 44.625H14.4375C14.0547 44.625 13.7402 44.748 13.4941 44.9941C13.248 45.2402 13.125 45.5547 13.125 45.9375C13.125 46.3203 13.248 46.6348 13.4941 46.8809C13.7402 47.127 14.0547 47.25 14.4375 47.25H30.1875C30.5703 47.25 30.8848 47.127 31.1309 46.8809C31.377 46.6348 31.5 46.3203 31.5 45.9375C31.5 45.5547 31.377 45.2402 31.1309 44.9941C30.8848 44.748 30.5703 44.625 30.1875 44.625ZM73.418 53.8945C74.2383 53.293 74.8945 52.5273 75.3867 51.5977C75.8789 50.668 76.125 49.6562 76.125 48.5625C76.125 48.1797 76.002 47.8652 75.7559 47.6191C75.5098 47.373 75.1953 47.25 74.8125 47.25H72.5977L73.3359 42H74.8125C75.9062 42 76.8359 41.6172 77.6016 40.8516C78.3672 40.0859 78.75 39.1562 78.75 38.0625C78.75 36.9688 78.3672 36.0391 77.6016 35.2734C76.8359 34.5078 75.9062 34.125 74.8125 34.125H66.6094L67.7578 31.582C68.1953 31.9102 68.6738 32.1699 69.1934 32.3613C69.7129 32.5527 70.2734 32.6484 70.875 32.6484C72.0781 32.6484 73.1445 32.293 74.0742 31.582C75.0039 30.8711 75.6328 29.9414 75.9609 28.793C76.0156 28.5742 76.0566 28.3555 76.084 28.1367C76.1113 27.918 76.125 27.6992 76.125 27.4805C76.125 27.4258 76.125 27.3848 76.125 27.3574C76.125 27.3301 76.125 27.2891 76.125 27.2344C76.8906 26.7969 77.5195 26.168 78.0117 25.3477C78.5039 24.5273 78.75 23.6523 78.75 22.7227C78.75 21.957 78.5996 21.2324 78.2988 20.5488C77.998 19.8652 77.5742 19.2773 77.0273 18.7852C77.1367 18.5664 77.2598 18.3066 77.3965 18.0059C77.5332 17.7051 77.6289 17.3906 77.6836 17.0625H77.7656C77.8203 16.7344 77.875 16.3926 77.9297 16.0371C77.9844 15.6816 78.0117 15.3398 78.0117 15.0117C78.0117 13.918 77.8066 12.8926 77.3965 11.9355C76.9863 10.9785 76.4258 10.1445 75.7148 9.43359C75.6055 9.32422 75.4688 9.24219 75.3047 9.1875C75.1406 9.13281 74.9766 9.10547 74.8125 9.10547C74.4297 9.10547 74.1152 9.22852 73.8691 9.47461C73.623 9.7207 73.5 10.0352 73.5 10.418C73.5 10.582 73.5273 10.7461 73.582 10.9102C73.6367 11.0742 73.7461 11.2109 73.9102 11.3203C74.3477 11.8125 74.7031 12.373 74.9766 13.002C75.25 13.6309 75.3867 14.3008 75.3867 15.0117C75.3867 16.1055 75.0723 17.1035 74.4434 18.0059C73.8145 18.9082 72.9805 19.5234 71.9414 19.8516V19.9336C71.7227 19.9883 71.5312 20.125 71.3672 20.3438C71.2031 20.5625 71.1211 20.8086 71.1211 21.082C71.1211 21.2461 71.1074 21.4102 71.0801 21.5742C71.0527 21.7383 71.0117 21.9023 70.957 22.0664V21.9844C70.7383 22.8594 70.2734 23.5703 69.5625 24.1172C68.8516 24.6641 68.0586 24.9375 67.1836 24.9375C66.2539 24.9375 65.4473 24.6641 64.7637 24.1172C64.0801 23.5703 63.6289 22.8867 63.4102 22.0664C63.4102 22.0664 63.4102 22.0391 63.4102 21.9844C63.3555 21.875 63.3145 21.7246 63.2871 21.5332C63.2598 21.3418 63.2461 21.1641 63.2461 21C63.2461 20.2891 63.4238 19.6328 63.7793 19.0312C64.1348 18.4297 64.5859 17.9375 65.1328 17.5547H65.2148C65.3789 17.4453 65.5293 17.2949 65.666 17.1035C65.8027 16.9121 65.8711 16.6797 65.8711 16.4062C65.8711 16.0781 65.7344 15.7773 65.4609 15.5039C65.1875 15.2305 64.8867 15.0938 64.5586 15.0938C64.3945 15.0938 64.2578 15.1211 64.1484 15.1758C64.0391 15.2305 63.957 15.2852 63.9023 15.3398C62.918 15.8867 62.125 16.666 61.5234 17.6777C60.9219 18.6895 60.6211 19.7969 60.6211 21C60.6211 21.0547 60.6211 21.1367 60.6211 21.2461C60.6211 21.3555 60.6211 21.4648 60.6211 21.5742V21.4922C60.5117 21.5469 60.3887 21.5742 60.252 21.5742C60.1152 21.5742 59.9648 21.5742 59.8008 21.5742C59.6367 21.5742 59.4727 21.5742 59.3086 21.5742C59.1445 21.5742 58.9805 21.5469 58.8164 21.4922H58.8984C58.2969 21.3281 57.791 21.0684 57.3809 20.7129C56.9707 20.3574 56.6289 19.9336 56.3555 19.4414C56.3555 19.3867 56.3555 19.3594 56.3555 19.3594C56.2461 19.0859 56.1504 18.8125 56.0684 18.5391C55.9863 18.2656 55.9453 17.9648 55.9453 17.6367C55.9453 17.6367 55.9453 17.6094 55.9453 17.5547C55.9453 17.2266 55.8223 16.9258 55.5762 16.6523C55.3301 16.3789 55.0156 16.2422 54.6328 16.2422C54.3047 16.2422 54.0039 16.3652 53.7305 16.6113C53.457 16.8574 53.3203 17.1719 53.3203 17.5547C53.3203 17.5547 53.3203 17.5684 53.3203 17.5957C53.3203 17.623 53.3203 17.6367 53.3203 17.6367C53.3203 17.9648 53.3477 18.2656 53.4023 18.5391C53.457 18.8125 53.5117 19.0859 53.5664 19.3594C53.3477 19.4141 53.1289 19.4688 52.9102 19.5234C52.6914 19.5781 52.4727 19.6055 52.2539 19.6055C52.0898 19.6055 51.9258 19.5918 51.7617 19.5645C51.5977 19.5371 51.4336 19.4961 51.2695 19.4414C50.832 19.332 50.4492 19.168 50.1211 18.9492C49.793 18.7305 49.4922 18.457 49.2188 18.1289V18.0469C48.9453 17.7188 48.7266 17.3496 48.5625 16.9395C48.3984 16.5293 48.3164 16.1055 48.3164 15.668C48.3164 14.7383 48.6035 13.918 49.1777 13.207C49.752 12.4961 50.4492 12.0312 51.2695 11.8125H51.3516C51.5703 11.7578 51.7754 11.6348 51.9668 11.4434C52.1582 11.252 52.2539 11.0195 52.2539 10.7461L52.3359 10.5C52.3359 10.4453 52.3359 10.3906 52.3359 10.3359C52.3359 10.2812 52.3359 10.2539 52.3359 10.2539C52.6094 9.32422 53.0742 8.53125 53.7305 7.875C54.3867 7.21875 55.1797 6.78125 56.1094 6.5625C56.1094 6.72656 56.0957 6.93164 56.0684 7.17773C56.041 7.42383 56.0273 7.65625 56.0273 7.875C56.0273 8.58594 56.123 9.2832 56.3145 9.9668C56.5059 10.6504 56.7656 11.2656 57.0938 11.8125C57.2031 12.0312 57.3535 12.1953 57.5449 12.3047C57.7363 12.4141 57.9414 12.4688 58.1602 12.4688C58.543 12.4688 58.8574 12.3457 59.1035 12.0996C59.3496 11.8535 59.4727 11.5391 59.4727 11.1562C59.4727 11.0469 59.459 10.9375 59.4316 10.8281C59.4043 10.7188 59.3633 10.6094 59.3086 10.5C59.0898 10.1172 58.9258 9.70703 58.8164 9.26953C58.707 8.83203 58.6523 8.36719 58.6523 7.875C58.6523 7.49219 58.6934 7.10938 58.7754 6.72656C58.8574 6.34375 58.9805 5.96094 59.1445 5.57812C59.582 4.70312 60.2246 3.99219 61.0723 3.44531C61.9199 2.89844 62.8633 2.625 63.9023 2.625C65.3242 2.625 66.5547 3.13086 67.5938 4.14258C68.6328 5.1543 69.1523 6.39844 69.1523 7.875C69.1523 7.92969 69.1387 7.99805 69.1113 8.08008C69.084 8.16211 69.0703 8.25781 69.0703 8.36719V8.28516C69.0703 8.33984 69.0703 8.36719 69.0703 8.36719C69.0703 8.75 69.207 9.06445 69.4805 9.31055C69.7539 9.55664 70.0547 9.67969 70.3828 9.67969C70.7109 9.67969 70.998 9.57031 71.2441 9.35156C71.4902 9.13281 71.6406 8.85938 71.6953 8.53125C71.6953 8.42188 71.709 8.3125 71.7363 8.20312C71.7637 8.09375 71.7773 7.98438 71.7773 7.875C71.7773 5.6875 70.998 3.82812 69.4395 2.29688C67.8809 0.765625 66.0352 0 63.9023 0C62.4805 0 61.1816 0.341797 60.0059 1.02539C58.8301 1.70898 57.8867 2.59766 57.1758 3.69141C55.4258 3.74609 53.8809 4.32031 52.541 5.41406C51.2012 6.50781 50.3125 7.875 49.875 9.51562V9.59766C48.6172 10.0898 47.6191 10.8691 46.8809 11.9355C46.1426 13.002 45.7734 14.2188 45.7734 15.5859C45.7734 16.1875 45.8418 16.748 45.9785 17.2676C46.1152 17.7871 46.293 18.293 46.5117 18.7852V18.7031C46.4023 18.8672 46.2793 19.0449 46.1426 19.2363C46.0059 19.4277 45.9102 19.6055 45.8555 19.7695L45.7734 19.8516L44.707 17.4727C44.2695 16.543 43.668 15.7363 42.9023 15.0527C42.1367 14.3691 41.2617 13.8906 40.2773 13.6172L40.1953 13.5352C40.0859 13.4805 39.9355 13.4395 39.7441 13.4121C39.5527 13.3848 39.375 13.3711 39.2109 13.3711L39.1289 13.2891L38.7188 6.31641C38.7188 5.98828 38.582 5.70117 38.3086 5.45508C38.0352 5.20898 37.7344 5.08594 37.4062 5.08594C37.0234 5.08594 36.709 5.20898 36.4629 5.45508C36.2168 5.70117 36.0938 6.01562 36.0938 6.39844C36.0938 6.39844 36.0938 6.41211 36.0938 6.43945C36.0938 6.4668 36.0938 6.48047 36.0938 6.48047L36.5039 13.3711C36.2852 13.4258 36.0664 13.4941 35.8477 13.5762C35.6289 13.6582 35.4102 13.7266 35.1914 13.7812H35.2734L33.4688 7.54688C33.4141 7.27344 33.2637 7.04102 33.0176 6.84961C32.7715 6.6582 32.5117 6.5625 32.2383 6.5625C31.8555 6.5625 31.541 6.68555 31.2949 6.93164C31.0488 7.17773 30.9258 7.49219 30.9258 7.875C30.9258 7.92969 30.9258 7.98438 30.9258 8.03906C30.9258 8.09375 30.9258 8.17578 30.9258 8.28516V8.20312L31.0078 8.36719L30.8438 8.28516C30.7344 8.17578 30.5977 8.08008 30.4336 7.99805C30.2695 7.91602 30.1055 7.875 29.9414 7.875C29.7773 7.875 29.6133 7.90234 29.4492 7.95703C29.2852 8.01172 29.1484 8.12109 29.0391 8.28516V8.20312L25.1016 11.9766C24.9922 12.1406 24.8965 12.291 24.8145 12.4277C24.7324 12.5645 24.6914 12.7422 24.6914 12.9609C24.6914 13.1797 24.7461 13.3848 24.8555 13.5762C24.9648 13.7676 25.1289 13.918 25.3477 14.0273L31.1719 17.8828C31.1172 18.0469 31.0625 18.2109 31.0078 18.375C30.9531 18.5391 30.8984 18.7305 30.8438 18.9492C30.7891 19.2227 30.748 19.4961 30.7207 19.7695C30.6934 20.043 30.6797 20.3164 30.6797 20.5898C30.6797 20.6992 30.6797 20.8086 30.6797 20.918C30.6797 21.0273 30.6797 21.1367 30.6797 21.2461C29.6953 21.4102 28.7656 21.6973 27.8906 22.1074C27.0156 22.5176 26.1953 23.0234 25.4297 23.625L24.5273 22.7227C24.418 22.6133 24.2812 22.5176 24.1172 22.4355C23.9531 22.3535 23.7891 22.3125 23.625 22.3125C23.2969 22.3125 22.9961 22.4492 22.7227 22.7227C22.4492 22.9961 22.3125 23.2969 22.3125 23.625C22.3125 23.7891 22.3535 23.9531 22.4355 24.1172C22.5176 24.2812 22.6133 24.418 22.7227 24.5273L22.8047 24.6094C21.7109 24.8828 20.7676 25.375 19.9746 26.0859C19.1816 26.7969 18.5938 27.6719 18.2109 28.7109H18.1289L18.0469 29.1211L14.8477 28.0547C14.793 28 14.7383 27.9727 14.6836 27.9727C14.6289 27.9727 14.5469 27.9727 14.4375 27.9727C14.0547 27.9727 13.7402 28.0957 13.4941 28.3418C13.248 28.5879 13.125 28.9023 13.125 29.2852C13.125 29.5586 13.207 29.8047 13.3711 30.0234C13.5352 30.2422 13.7539 30.4062 14.0273 30.5156L40.4414 39.6211C40.6602 39.7305 40.8516 39.8945 41.0156 40.1133C41.1797 40.332 41.2617 40.6055 41.2617 40.9336C41.2617 41.2617 41.1387 41.5625 40.8926 41.8359C40.6465 42.1094 40.332 42.2461 39.9492 42.2461C39.8945 42.2461 39.8262 42.2324 39.7441 42.2051C39.6621 42.1777 39.5938 42.1641 39.5391 42.1641L4.83984 30.1055C4.56641 29.9961 4.34766 29.832 4.18359 29.6133C4.01953 29.3945 3.9375 29.1484 3.9375 28.875C3.9375 28.6016 4.00586 28.3691 4.14258 28.1777C4.2793 27.9863 4.45703 27.8359 4.67578 27.7266C4.78516 27.6719 4.88086 27.6309 4.96289 27.6035C5.04492 27.5762 5.14062 27.5625 5.25 27.5625C5.30469 27.5625 5.37305 27.5625 5.45508 27.5625C5.53711 27.5625 5.60547 27.5898 5.66016 27.6445L9.02344 28.793C9.13281 28.8477 9.22852 28.875 9.31055 28.875C9.39258 28.875 9.46094 28.875 9.51562 28.875C9.89844 28.875 10.2129 28.752 10.459 28.5059C10.7051 28.2598 10.8281 27.9453 10.8281 27.5625C10.8281 27.2891 10.7461 27.043 10.582 26.8242C10.418 26.6055 10.1992 26.4414 9.92578 26.332L6.5625 25.1836C6.34375 25.0742 6.125 25.0059 5.90625 24.9785C5.6875 24.9512 5.44141 24.9375 5.16797 24.9375C4.12891 24.9375 3.21289 25.3203 2.41992 26.0859C1.62695 26.8516 1.23047 27.7812 1.23047 28.875C1.23047 29.75 1.49023 30.5156 2.00977 31.1719C2.5293 31.8281 3.17188 32.293 3.9375 32.5664L8.36719 34.125H3.9375C2.84375 34.125 1.91406 34.5078 1.14844 35.2734C0.382813 36.0391 0 36.9688 0 38.0625C0 39.1562 0.382813 40.0859 1.14844 40.8516C1.91406 41.6172 2.84375 42 3.9375 42H31.0898L38.7188 44.625C38.8828 44.6797 39.0742 44.7344 39.293 44.7891C39.5117 44.8438 39.7578 44.8711 40.0312 44.8711C41.125 44.8711 42.0547 44.4883 42.8203 43.7227C43.5859 42.957 43.9688 42.0273 43.9688 40.9336C43.9688 40.0586 43.709 39.2793 43.1895 38.5957C42.6699 37.9121 42.0273 37.4336 41.2617 37.1602L40.0312 36.75H74.8125C75.1953 36.75 75.5098 36.873 75.7559 37.1191C76.002 37.3652 76.125 37.6797 76.125 38.0625C76.125 38.4453 76.002 38.7598 75.7559 39.0059C75.5098 39.252 75.1953 39.375 74.8125 39.375H47.8242C47.4961 39.375 47.1953 39.498 46.9219 39.7441C46.6484 39.9902 46.5117 40.3047 46.5117 40.6875C46.5117 41.0703 46.6484 41.3848 46.9219 41.6309C47.1953 41.877 47.4961 42 47.8242 42H70.7109L69.8906 47.6602C69.5078 47.8242 69.1523 48.0156 68.8242 48.2344C68.4961 48.4531 68.1953 48.6719 67.9219 48.8906V48.7266C67.9219 48.6172 67.9219 48.5352 67.9219 48.4805C67.9219 48.4258 67.9219 48.3438 67.9219 48.2344C67.9219 47.7969 67.8398 47.373 67.6758 46.9629C67.5117 46.5527 67.293 46.1836 67.0195 45.8555C66.6914 45.4727 66.2949 45.1855 65.8301 44.9941C65.3652 44.8027 64.8594 44.707 64.3125 44.707C63.7656 44.707 63.2598 44.8027 62.7949 44.9941C62.3301 45.1855 61.9336 45.4727 61.6055 45.8555C61.332 46.1836 61.1133 46.5527 60.9492 46.9629C60.7852 47.373 60.7031 47.7969 60.7031 48.2344C60.7031 48.3438 60.7031 48.4395 60.7031 48.5215C60.7031 48.6035 60.7031 48.6719 60.7031 48.7266L61.1953 52.582C61.0312 52.5273 60.8809 52.5 60.7441 52.5C60.6074 52.5 60.4844 52.5 60.375 52.5C59.1172 52.5 57.9277 52.7051 56.8066 53.1152C55.6855 53.5254 54.6875 54.0859 53.8125 54.7969V53.8125C53.8125 52.7188 53.4297 51.7891 52.6641 51.0234C51.8984 50.2578 50.9688 49.875 49.875 49.875C48.7812 49.875 47.8516 50.2578 47.0859 51.0234C46.3203 51.7891 45.9375 52.7188 45.9375 53.8125V69.5625C45.9375 70.6562 46.3203 71.5859 47.0859 72.3516C47.8516 73.1172 48.7812 73.5 49.875 73.5C50.3672 73.5 50.8457 73.4043 51.3105 73.2129C51.7754 73.0215 52.1992 72.7617 52.582 72.4336C52.9102 73.1445 53.293 73.8008 53.7305 74.4023C54.168 75.0039 54.6328 75.5781 55.125 76.125H26.25C25.8672 76.125 25.5527 76.248 25.3066 76.4941C25.0605 76.7402 24.9375 77.0547 24.9375 77.4375C24.9375 77.8203 25.0605 78.1348 25.3066 78.3809C25.5527 78.627 25.8672 78.75 26.25 78.75H60.1289C60.1289 78.75 60.1562 78.75 60.2109 78.75C60.2656 78.75 60.3066 78.75 60.334 78.75C60.3613 78.75 60.375 78.75 60.375 78.75C61.0859 78.75 61.7832 78.6816 62.4668 78.5449C63.1504 78.4082 63.793 78.2031 64.3945 77.9297L64.3125 78.0117C64.9141 78.2305 65.543 78.4082 66.1992 78.5449C66.8555 78.6816 67.5391 78.75 68.25 78.75C69.4531 78.75 70.6152 78.3672 71.7363 77.6016C72.8574 76.8359 73.9102 75.7422 74.8945 74.3203C75.0039 74.2109 75.0723 74.0879 75.0996 73.9512C75.127 73.8145 75.1406 73.6914 75.1406 73.582C75.1406 73.1992 75.0176 72.8848 74.7715 72.6387C74.5254 72.3926 74.2109 72.2695 73.8281 72.2695C73.6094 72.2695 73.4043 72.3105 73.2129 72.3926C73.0215 72.4746 72.8711 72.625 72.7617 72.8438C72.0508 73.8828 71.2988 74.6895 70.5059 75.2637C69.7129 75.8379 68.9609 76.125 68.25 76.125C67.6484 76.125 67.0605 76.0566 66.4863 75.9199C65.9121 75.7832 65.3516 75.5781 64.8047 75.3047L64.8867 75.3867C64.7773 75.332 64.6816 75.291 64.5996 75.2637C64.5176 75.2363 64.4219 75.2227 64.3125 75.2227C64.2031 75.2227 64.1074 75.2363 64.0254 75.2637C63.9434 75.291 63.8477 75.332 63.7383 75.3867C63.2461 75.6055 62.7129 75.7832 62.1387 75.9199C61.5645 76.0566 60.9766 76.125 60.375 76.125C60.375 76.125 60.3613 76.125 60.334 76.125C60.3066 76.125 60.293 76.125 60.293 76.125C58.3242 76.0703 56.5332 74.4707 54.9199 71.3262C53.3066 68.1816 52.5 65.4062 52.5 63C52.5 60.8125 53.2656 58.9531 54.7969 57.4219C56.3281 55.8906 58.1875 55.125 60.375 55.125C60.5938 55.125 60.7988 55.1387 60.9902 55.166C61.1816 55.1934 61.3867 55.207 61.6055 55.207H61.5234V55.2891C61.6328 56 61.9473 56.5879 62.4668 57.0527C62.9863 57.5176 63.6016 57.75 64.3125 57.75C65.0234 57.75 65.6387 57.5176 66.1582 57.0527C66.6777 56.5879 66.9922 56 67.1016 55.2891V55.207C67.2656 55.207 67.4434 55.1934 67.6348 55.166C67.8262 55.1387 68.0312 55.125 68.25 55.125C70.4375 55.125 72.2969 55.8906 73.8281 57.4219C75.3594 58.9531 76.125 60.8125 76.125 63C76.0703 63.9844 75.9473 64.9414 75.7559 65.8711C75.5645 66.8008 75.3047 67.6758 74.9766 68.4961V68.4141C74.9766 68.4688 74.9629 68.5371 74.9355 68.6191C74.9082 68.7012 74.8945 68.7969 74.8945 68.9062C74.8945 69.2891 75.0176 69.6035 75.2637 69.8496C75.5098 70.0957 75.8242 70.2188 76.207 70.2188C76.4805 70.2188 76.7402 70.1367 76.9863 69.9727C77.2324 69.8086 77.3828 69.5898 77.4375 69.3164C77.8203 68.3867 78.1211 67.3887 78.3398 66.3223C78.5586 65.2559 78.6953 64.1484 78.75 63C78.75 61.0312 78.2578 59.2402 77.2734 57.627C76.2891 56.0137 75.0039 54.7695 73.418 53.8945ZM3.9375 39.375C3.55469 39.375 3.24023 39.252 2.99414 39.0059C2.74805 38.7598 2.625 38.4453 2.625 38.0625C2.625 37.6797 2.74805 37.3652 2.99414 37.1191C3.24023 36.873 3.55469 36.75 3.9375 36.75H15.9961L23.543 39.375H3.9375ZM73.5 22.7227C73.5 22.6133 73.5137 22.5039 73.541 22.3945C73.5684 22.2852 73.6094 22.1758 73.6641 22.0664V21.9844C73.9922 21.8203 74.293 21.6426 74.5664 21.4512C74.8398 21.2598 75.1133 21.0547 75.3867 20.8359C75.6055 21.0547 75.7832 21.3281 75.9199 21.6562C76.0566 21.9844 76.125 22.3398 76.125 22.7227C76.125 23.2695 75.9473 23.7754 75.5918 24.2402C75.2363 24.7051 74.8125 25.0195 74.3203 25.1836H74.2383C73.9648 25.293 73.7461 25.457 73.582 25.6758C73.418 25.8945 73.3359 26.1406 73.3359 26.4141C73.3359 26.4688 73.3359 26.5234 73.3359 26.5781C73.3359 26.6328 73.3633 26.6875 73.418 26.7422C73.418 26.8516 73.4316 26.9609 73.459 27.0703C73.4863 27.1797 73.5 27.3164 73.5 27.4805C73.5 27.5898 73.4863 27.6992 73.459 27.8086C73.4316 27.918 73.418 28.0273 73.418 28.1367V28.0547C73.2539 28.6562 72.9395 29.1348 72.4746 29.4902C72.0098 29.8457 71.4766 30.0234 70.875 30.0234C70.7656 30.0234 70.6426 30.0234 70.5059 30.0234C70.3691 30.0234 70.2461 29.9961 70.1367 29.9414H70.2188C69.9453 29.8867 69.6855 29.7773 69.4395 29.6133C69.1934 29.4492 68.9883 29.2578 68.8242 29.0391L69.7266 26.9883C69.8906 26.9336 70.0273 26.8789 70.1367 26.8242C70.2461 26.7695 70.3555 26.7148 70.4648 26.6602C71.1758 26.2227 71.8047 25.6621 72.3516 24.9785C72.8984 24.2949 73.2812 23.543 73.5 22.7227ZM66.6914 27.4805L63.7383 34.125H55.4531L55.7812 32.9766C55.7812 32.9766 55.7949 32.9355 55.8223 32.8535C55.8496 32.7715 55.8633 32.7031 55.8633 32.6484C55.8633 32.6484 55.8496 32.6211 55.8223 32.5664C55.7949 32.5117 55.7812 32.457 55.7812 32.4023L53.7305 22.0664C53.8945 22.0117 54.0723 21.957 54.2637 21.9023C54.4551 21.8477 54.6328 21.7656 54.7969 21.6562L54.7148 21.7383C55.0977 22.1758 55.5078 22.5586 55.9453 22.8867C56.3828 23.2148 56.8477 23.4883 57.3398 23.707H57.4219L58.9805 31.6641C59.0352 31.9375 59.1719 32.1699 59.3906 32.3613C59.6094 32.5527 59.8555 32.6484 60.1289 32.6484C60.1836 32.6484 60.2109 32.6484 60.2109 32.6484C60.2109 32.6484 60.2383 32.6484 60.293 32.6484C60.5664 32.6484 60.8125 32.5801 61.0312 32.4434C61.25 32.3066 61.3867 32.1289 61.4414 31.9102H61.5234L63.9844 26.6602C64.3672 26.9336 64.7773 27.1387 65.2148 27.2754C65.6523 27.4121 66.1172 27.4805 66.6094 27.4805H66.6914ZM61.3594 24.0352C61.4688 24.1992 61.5645 24.3496 61.6465 24.4863C61.7285 24.623 61.8242 24.7461 61.9336 24.8555L60.7852 27.2344L60.2109 24.1992C60.4297 24.1992 60.6348 24.1855 60.8262 24.1582C61.0176 24.1309 61.2227 24.0898 61.4414 24.0352H61.3594ZM51.0234 22.0664L51.5156 24.4453C51.3516 24.5 51.1875 24.541 51.0234 24.5684C50.8594 24.5957 50.6953 24.6094 50.5312 24.6094C50.4219 24.6094 50.3125 24.5957 50.2031 24.5684C50.0938 24.541 49.9844 24.5273 49.875 24.5273C49.3281 24.3633 48.877 24.0488 48.5215 23.584C48.166 23.1191 47.9883 22.5859 47.9883 21.9844C47.9883 21.875 47.9883 21.752 47.9883 21.6152C47.9883 21.4785 48.0156 21.3555 48.0703 21.2461V21.3281C48.0703 21.2188 48.0977 21.123 48.1523 21.041C48.207 20.959 48.2344 20.8906 48.2344 20.8359C48.5625 21.1094 48.918 21.3418 49.3008 21.5332C49.6836 21.7246 50.0938 21.875 50.5312 21.9844H50.6133C50.668 21.9844 50.7363 21.998 50.8184 22.0254C50.9004 22.0527 50.9688 22.0664 51.0234 22.0664ZM49.2188 27.0703C49.4375 27.125 49.6562 27.166 49.875 27.1934C50.0938 27.2207 50.3398 27.2344 50.6133 27.2344C50.832 27.2344 51.0781 27.207 51.3516 27.1523C51.625 27.0977 51.8711 27.043 52.0898 26.9883H52.0078L53.1562 32.6484L52.7461 34.125H52.5L49.2188 27.0703ZM49.6289 34.125H47.0039C47.0586 34.125 47.1133 34.1113 47.168 34.084C47.2227 34.0566 47.2773 34.043 47.332 34.043L49.1367 32.9766L49.6289 34.125ZM40.6055 16.6523L39.2109 17.4727C39.0469 17.582 38.8965 17.7324 38.7598 17.9238C38.623 18.1152 38.5547 18.3477 38.5547 18.6211C38.5547 18.9492 38.6914 19.25 38.9648 19.5234C39.2383 19.7969 39.5391 19.9336 39.8672 19.9336C40.0312 19.9336 40.168 19.9062 40.2773 19.8516C40.3867 19.7969 40.4961 19.7422 40.6055 19.6875H40.5234L42.3281 18.7031L44.0508 22.2305L42.4922 23.1328C42.3281 23.2422 42.1777 23.3926 42.041 23.584C41.9043 23.7754 41.8359 24.0078 41.8359 24.2812C41.8359 24.6094 41.9727 24.9102 42.2461 25.1836C42.5195 25.457 42.8203 25.5938 43.1484 25.5938C43.3125 25.5938 43.4492 25.5801 43.5586 25.5527C43.668 25.5254 43.7773 25.4844 43.8867 25.4297H43.8047L45.1992 24.6094L47.9883 30.5977L46.0195 31.7461C45.8008 31.8555 45.6367 32.0059 45.5273 32.1973C45.418 32.3887 45.3633 32.6211 45.3633 32.8945C45.3633 33.168 45.4453 33.4141 45.6094 33.6328C45.7734 33.8516 45.9922 34.0156 46.2656 34.125H41.6719L40.1953 32.0742L43.5586 30.1055C43.7227 29.9961 43.873 29.8457 44.0098 29.6543C44.1465 29.4629 44.2148 29.2305 44.2148 28.957C44.2148 28.6289 44.0781 28.3281 43.8047 28.0547C43.5312 27.7812 43.2305 27.6445 42.9023 27.6445C42.793 27.6445 42.6699 27.6582 42.5332 27.6855C42.3965 27.7129 42.3008 27.7812 42.2461 27.8906V27.8086L38.7188 29.8594L36.5039 26.6602L39.1289 25.1016C39.293 24.9922 39.4434 24.8418 39.5801 24.6504C39.7168 24.459 39.7852 24.2266 39.7852 23.9531C39.7852 23.625 39.6484 23.3242 39.375 23.0508C39.1016 22.7773 38.8008 22.6406 38.4727 22.6406C38.3633 22.6406 38.2539 22.6543 38.1445 22.6816C38.0352 22.709 37.9258 22.75 37.8164 22.8047L34.9453 24.4453L34.125 23.2969C33.8516 22.9141 33.6465 22.4902 33.5098 22.0254C33.373 21.5605 33.3047 21.082 33.3047 20.5898C33.3047 19.2773 33.7695 18.1562 34.6992 17.2266C35.6289 16.2969 36.7227 15.832 37.9805 15.832C38.2539 15.832 38.5137 15.8594 38.7598 15.9141C39.0059 15.9688 39.2383 16.0234 39.457 16.0781C39.6758 16.1328 39.8809 16.2148 40.0723 16.3242C40.2637 16.4336 40.4414 16.543 40.6055 16.6523ZM28.1367 12.7969L29.8594 11.0742L32.4844 13.7812L32.9766 15.2578C32.9219 15.3125 32.8535 15.3809 32.7715 15.4629C32.6895 15.5449 32.6211 15.6133 32.5664 15.668L28.1367 12.7969ZM20.5898 29.6133C20.918 28.9023 21.4102 28.3008 22.0664 27.8086C22.7227 27.3164 23.4609 27.0703 24.2812 27.0703C24.3359 27.0703 24.3633 27.0703 24.3633 27.0703L24.0352 28.1367C23.8164 28.6289 23.502 29.0801 23.0918 29.4902C22.6816 29.9004 22.2031 30.1875 21.6562 30.3516L20.5078 30.0234L20.5898 29.6133ZM24.8555 31.5C25.1836 31.1719 25.4844 30.8027 25.7578 30.3926C26.0312 29.9824 26.25 29.5312 26.4141 29.0391H26.4961L26.6602 28.4648C26.7695 28.5742 26.8926 28.6562 27.0293 28.7109C27.166 28.7656 27.3164 28.793 27.4805 28.793C27.8633 28.793 28.1777 28.6699 28.4238 28.4238C28.6699 28.1777 28.793 27.8633 28.793 27.4805C28.793 27.3164 28.7656 27.166 28.7109 27.0293C28.6562 26.8926 28.5742 26.7695 28.4648 26.6602L27.3164 25.5117C27.918 25.0742 28.5605 24.7051 29.2441 24.4043C29.9277 24.1035 30.625 23.8984 31.3359 23.7891H31.418C31.5273 23.9531 31.623 24.1172 31.7051 24.2812C31.7871 24.4453 31.8828 24.6094 31.9922 24.7734L38.4727 34.125H32.4844L24.8555 31.5ZM51.1875 69.5625C51.1875 69.9453 51.0645 70.2598 50.8184 70.5059C50.5723 70.752 50.2578 70.875 49.875 70.875C49.4922 70.875 49.1777 70.752 48.9316 70.5059C48.6855 70.2598 48.5625 69.9453 48.5625 69.5625V53.8125C48.5625 53.4297 48.6855 53.1152 48.9316 52.8691C49.1777 52.623 49.4922 52.5 49.875 52.5C50.2578 52.5 50.5723 52.623 50.8184 52.8691C51.0645 53.1152 51.1875 53.4297 51.1875 53.8125V57.9141C50.75 58.6797 50.4219 59.4863 50.2031 60.334C49.9844 61.1816 49.875 62.0703 49.875 63C49.9297 64.2031 50.0801 65.3652 50.3262 66.4863C50.5723 67.6074 50.8867 68.6875 51.2695 69.7266V69.5625H51.1875ZM72.1875 49.875H73.2539C72.9805 50.6406 72.5156 51.2695 71.8594 51.7617C71.2031 52.2539 70.4375 52.5 69.5625 52.5H68.4961C68.7695 51.7344 69.2344 51.1055 69.8906 50.6133C70.5469 50.1211 71.3125 49.875 72.1875 49.875ZM64.1484 54.9609L63.3281 48.3984C63.3281 48.3438 63.3281 48.3164 63.3281 48.3164C63.3281 48.3164 63.3281 48.2891 63.3281 48.2344C63.3281 47.9609 63.4238 47.7285 63.6152 47.5371C63.8066 47.3457 64.0391 47.25 64.3125 47.25C64.5859 47.25 64.8184 47.3457 65.0098 47.5371C65.2012 47.7285 65.2969 47.9609 65.2969 48.2344C65.2969 48.2891 65.2969 48.3164 65.2969 48.3164C65.2969 48.3164 65.2969 48.3438 65.2969 48.3984L64.4766 54.9609C64.4766 55.0156 64.4629 55.0566 64.4355 55.084C64.4082 55.1113 64.3672 55.125 64.3125 55.125C64.2578 55.125 64.2168 55.1113 64.1895 55.084C64.1621 55.0566 64.1484 55.0156 64.1484 54.9609ZM70.0547 57.9961C70 57.9414 69.918 57.9004 69.8086 57.873C69.6992 57.8457 69.5898 57.832 69.4805 57.832C69.0977 57.832 68.7832 57.9688 68.5371 58.2422C68.291 58.5156 68.168 58.8164 68.168 59.1445C68.168 59.418 68.2363 59.6504 68.373 59.8418C68.5098 60.0332 68.6602 60.1836 68.8242 60.293C69.2617 60.5117 69.6172 60.7852 69.8906 61.1133C70.1641 61.4414 70.3828 61.8242 70.5469 62.2617C70.6562 62.5352 70.8203 62.7539 71.0391 62.918C71.2578 63.082 71.5039 63.1641 71.7773 63.1641C72.1602 63.1641 72.4746 63.041 72.7207 62.7949C72.9668 62.5488 73.0898 62.2344 73.0898 61.8516C73.0898 61.7422 73.0898 61.6465 73.0898 61.5645C73.0898 61.4824 73.0625 61.4141 73.0078 61.3594C72.7344 60.6484 72.3516 60.0059 71.8594 59.4316C71.3672 58.8574 70.793 58.3789 70.1367 57.9961H70.0547Z" fill="white"/>
</svg>
