<svg width="84" height="71" viewBox="0 0 84 71" fill="none" xmlns="http://www.w3.org/2000/svg">
<path d="M14.9297 48.7266C13.0703 48.7266 11.4707 49.3965 10.1309 50.7363C8.79102 52.0762 8.12109 53.6758 8.12109 55.5352C8.12109 57.3945 8.79102 58.9805 10.1309 60.293C11.4707 61.6055 13.0703 62.2617 14.9297 62.2617C16.7891 62.2617 18.375 61.6055 19.6875 60.293C21 58.9805 21.6562 57.3945 21.6562 55.5352C21.6562 53.6758 21 52.0762 19.6875 50.7363C18.375 49.3965 16.7891 48.7266 14.9297 48.7266ZM14.9297 59.5547C13.7812 59.5547 12.8105 59.1582 12.0176 58.3652C11.2246 57.5723 10.8281 56.6289 10.8281 55.5352C10.8281 54.3867 11.2246 53.416 12.0176 52.623C12.8105 51.8301 13.7812 51.4336 14.9297 51.4336C16.0234 51.4336 16.9668 51.8301 17.7598 52.623C18.5527 53.416 18.9492 54.3867 18.9492 55.5352C18.9492 56.6289 18.5527 57.5723 17.7598 58.3652C16.9668 59.1582 16.0234 59.5547 14.9297 59.5547ZM72.7617 32.4844L76.4531 34.9453C76.5625 35.0547 76.6855 35.123 76.8223 35.1504C76.959 35.1777 77.082 35.1914 77.1914 35.1914H82.6055C82.9883 35.1914 83.3164 35.0547 83.5898 34.7812C83.8633 34.5078 84 34.1797 84 33.7969V28.3828C84 28.0547 83.8633 27.7539 83.5898 27.4805C83.3164 27.207 82.9883 27.0703 82.6055 27.0703H80.3086L76.6172 24.6094C76.5078 24.5 76.3848 24.4316 76.248 24.4043C76.1113 24.377 75.9883 24.3633 75.8789 24.3633H70.4648V8.12109H71.7773C72.1602 8.12109 72.4883 7.98438 72.7617 7.71094C73.0352 7.4375 73.1719 7.10938 73.1719 6.72656V1.3125C73.1719 0.929688 73.0352 0.615234 72.7617 0.369141C72.4883 0.123047 72.1602 0 71.7773 0H42C41.8359 0 41.6719 0.0273438 41.5078 0.0820312C41.3438 0.136719 41.1797 0.21875 41.0156 0.328125L35.6016 5.74219C35.4375 5.96094 35.3281 6.20703 35.2734 6.48047C35.2188 6.75391 35.2461 7 35.3555 7.21875C35.4648 7.49219 35.6289 7.71094 35.8477 7.875C36.0664 8.03906 36.3125 8.12109 36.5859 8.12109H67.7578V14.8477H63.6562C63.2734 14.8477 62.959 14.9844 62.7129 15.2578C62.4668 15.5312 62.3438 15.8594 62.3438 16.2422V22.9688C62.3438 23.3516 62.207 23.6797 61.9336 23.9531C61.6602 24.2266 61.332 24.3633 60.9492 24.3633H52.8281C52.4453 24.3633 52.1309 24.5 51.8848 24.7734C51.6387 25.0469 51.5156 25.3477 51.5156 25.6758V31.0898C51.5156 31.4727 51.6387 31.8008 51.8848 32.0742C52.1309 32.3477 52.4453 32.4844 52.8281 32.4844H55.4531L43.8867 40.8516C43.7227 41.0156 43.5996 41.1934 43.5176 41.3848C43.4355 41.5762 43.3945 41.7812 43.3945 42V46.0195H35.1914V43.3125H36.5859C36.9688 43.3125 37.2832 43.1758 37.5293 42.9023C37.7754 42.6289 37.8984 42.3281 37.8984 42V37.8984H42C42.1641 37.8984 42.3281 37.8711 42.4922 37.8164C42.6562 37.7617 42.8203 37.6523 42.9844 37.4883L45.6914 34.7812L43.7227 32.8945L41.4258 35.1914H37.8984V31.6641L50.1211 19.5234L51.8438 21.2461L53.8125 19.3594L48.3984 13.9453L46.4297 15.832L48.2344 17.5547L37.8984 27.8906V25.6758C37.8984 25.3477 37.7754 25.0469 37.5293 24.7734C37.2832 24.5 36.9688 24.3633 36.5859 24.3633H32.4844V22.9688C32.4844 22.6406 32.3613 22.3398 32.1152 22.0664C31.8691 21.793 31.5547 21.6562 31.1719 21.6562H29.7773V14.8477C29.7773 13.7539 29.3809 12.8105 28.5879 12.0176C27.7949 11.2246 26.8516 10.8281 25.7578 10.8281H21.6562V13.5352H25.7578C26.1406 13.5352 26.4551 13.6582 26.7012 13.9043C26.9473 14.1504 27.0703 14.4648 27.0703 14.8477V21.6562H25.7578C25.375 21.6562 25.0469 21.793 24.7734 22.0664C24.5 22.3398 24.3633 22.6406 24.3633 22.9688V27.0703H14.9297C13.7812 27.0703 12.8105 27.4668 12.0176 28.2598C11.2246 29.0527 10.8281 29.9961 10.8281 31.0898V42.5742C10.5 42.6836 10.1582 42.8066 9.80273 42.9434C9.44727 43.0801 9.10547 43.2305 8.77734 43.3945L7.71094 42.3281C7.4375 42.1094 7.12305 42 6.76758 42C6.41211 42 6.09766 42.1094 5.82422 42.3281L1.72266 46.4297C1.50391 46.7031 1.39453 47.0176 1.39453 47.373C1.39453 47.7285 1.50391 48.043 1.72266 48.3164L2.78906 49.3828C2.625 49.7109 2.48828 50.0527 2.37891 50.4082C2.26953 50.7637 2.13281 51.1055 1.96875 51.4336H1.39453C1.01172 51.4336 0.683594 51.5703 0.410156 51.8438C0.136719 52.1172 0 52.4453 0 52.8281V58.2422C0 58.625 0.136719 58.9395 0.410156 59.1855C0.683594 59.4316 1.01172 59.5547 1.39453 59.5547H1.96875C2.07812 59.9375 2.20117 60.293 2.33789 60.6211C2.47461 60.9492 2.65234 61.2773 2.87109 61.6055L1.72266 62.6719C1.50391 62.9453 1.39453 63.2734 1.39453 63.6562C1.39453 64.0391 1.50391 64.3672 1.72266 64.6406L5.82422 68.6602C6.09766 68.9336 6.41211 69.0703 6.76758 69.0703C7.12305 69.0703 7.4375 68.9336 7.71094 68.6602L8.77734 67.5938C9.10547 67.7578 9.44727 67.9082 9.80273 68.0449C10.1582 68.1816 10.5 68.3047 10.8281 68.4141V69.0703C10.8281 69.4531 10.9648 69.7676 11.2383 70.0137C11.5117 70.2598 11.8398 70.3828 12.2227 70.3828H17.6367C18.0195 70.3828 18.334 70.2598 18.5801 70.0137C18.8262 69.7676 18.9492 69.4531 18.9492 69.0703V68.4141C19.332 68.3047 19.6875 68.1816 20.0156 68.0449C20.3438 67.9082 20.6719 67.7578 21 67.5938L22.0664 68.6602C22.3398 68.9336 22.668 69.0703 23.0508 69.0703C23.4336 69.0703 23.7344 68.9336 23.9531 68.6602L28.0547 64.6406C28.3281 64.3672 28.4648 64.0391 28.4648 63.6562C28.4648 63.2734 28.3281 62.9453 28.0547 62.6719L26.9883 61.6055C27.1523 61.2773 27.3027 60.9492 27.4395 60.6211C27.5762 60.293 27.6992 59.9375 27.8086 59.5547H28.4648C28.8477 59.5547 29.1621 59.4316 29.4082 59.1855C29.6543 58.9395 29.7773 58.625 29.7773 58.2422V56.8477H32.4844V58.2422C32.4844 58.625 32.6211 58.9395 32.8945 59.1855C33.168 59.4316 33.4961 59.5547 33.8789 59.5547H44.707C45.0898 59.5547 45.418 59.4316 45.6914 59.1855C45.9648 58.9395 46.1016 58.625 46.1016 58.2422V56.8477H50.6953C50.8594 57.5586 51.0781 58.2559 51.3516 58.9395C51.625 59.623 51.9531 60.2656 52.3359 60.8672L51.8438 61.3594C51.7344 61.4688 51.6523 61.6055 51.5977 61.7695C51.543 61.9336 51.5156 62.0977 51.5156 62.2617C51.5156 62.4805 51.543 62.6719 51.5977 62.8359C51.6523 63 51.7344 63.1367 51.8438 63.2461L55.9453 67.3477C56.2188 67.5664 56.5469 67.6758 56.9297 67.6758C57.3125 67.6758 57.6133 67.5664 57.832 67.3477L58.3242 66.8555C58.9258 67.2383 59.5684 67.5664 60.252 67.8398C60.9355 68.1133 61.6328 68.3594 62.3438 68.5781V69.0703C62.3438 69.4531 62.4668 69.7676 62.7129 70.0137C62.959 70.2598 63.2734 70.3828 63.6562 70.3828H69.0703C69.4531 70.3828 69.7812 70.2598 70.0547 70.0137C70.3281 69.7676 70.4648 69.4531 70.4648 69.0703V68.5781C71.1758 68.3594 71.873 68.1133 72.5566 67.8398C73.2402 67.5664 73.8828 67.2383 74.4844 66.8555L74.8945 67.3477C75.0586 67.457 75.2227 67.5391 75.3867 67.5938C75.5508 67.6484 75.7148 67.6758 75.8789 67.6758C76.043 67.6758 76.207 67.6484 76.3711 67.5938C76.5352 67.5391 76.6992 67.457 76.8633 67.3477L80.8828 63.2461C81.1562 62.9727 81.293 62.6445 81.293 62.2617C81.293 61.8789 81.1562 61.5781 80.8828 61.3594L80.4727 60.9492C80.8555 60.293 81.1836 59.623 81.457 58.9395C81.7305 58.2559 81.9492 57.5586 82.1133 56.8477H82.6055C82.9883 56.8477 83.3164 56.7246 83.5898 56.4785C83.8633 56.2324 84 55.918 84 55.5352V50.1211C84 49.7383 83.8633 49.4102 83.5898 49.1367C83.3164 48.8633 82.9883 48.7266 82.6055 48.7266H82.1133C81.9492 48.0156 81.7305 47.332 81.457 46.6758C81.1836 46.0195 80.8555 45.3633 80.4727 44.707L80.8828 44.2969C80.9922 44.1328 81.0879 43.9688 81.1699 43.8047C81.252 43.6406 81.293 43.4766 81.293 43.3125C81.293 43.1484 81.252 42.9844 81.1699 42.8203C81.0879 42.6562 80.9922 42.4922 80.8828 42.3281L76.8633 38.3086C76.5898 38.0352 76.2617 37.8984 75.8789 37.8984C75.4961 37.8984 75.168 38.0352 74.8945 38.3086L74.4844 38.7188C73.8281 38.3359 73.1719 38.0078 72.5156 37.7344C71.8594 37.4609 71.1758 37.2422 70.4648 37.0781V36.5859C70.4648 36.2031 70.3281 35.875 70.0547 35.6016C69.7812 35.3281 69.4531 35.1914 69.0703 35.1914H67.7578V32.4844H72.7617ZM42.5742 2.70703H70.4648V5.41406H39.8672L42.5742 2.70703ZM79.1602 29.5312C79.2695 29.6406 79.3926 29.709 79.5293 29.7363C79.666 29.7637 79.7891 29.7773 79.8984 29.7773H81.293V32.4844H77.6016L73.9102 30.0234C73.8008 29.9141 73.6777 29.8457 73.541 29.8184C73.4043 29.791 73.2812 29.7773 73.1719 29.7773H66.9375L69.6445 27.0703H75.4688L79.1602 29.5312ZM54.2227 27.0703H60.9492C62.0977 27.0703 63.0684 26.6738 63.8613 25.8809C64.6543 25.0879 65.0508 24.1172 65.0508 22.9688V17.5547H67.7578V25.1836L63.082 29.7773H54.2227V27.0703ZM43.3945 48.7266V51.4336H35.1914V48.7266H43.3945ZM32.4844 31.0898V27.0703H35.1914V40.6055H29.7773V32.4844H31.1719C31.5547 32.4844 31.8691 32.3477 32.1152 32.0742C32.3613 31.8008 32.4844 31.4727 32.4844 31.0898ZM27.0703 24.3633H29.7773V29.7773H27.0703V24.3633ZM14.9297 29.7773H18.9492V35.1914H13.5352V31.0898C13.5352 30.7617 13.6719 30.4609 13.9453 30.1875C14.2188 29.9141 14.5469 29.7773 14.9297 29.7773ZM27.0703 56.8477H26.7422C26.4141 56.8477 26.127 56.9434 25.8809 57.1348C25.6348 57.3262 25.4844 57.5859 25.4297 57.9141C25.3203 58.5156 25.1562 59.0898 24.9375 59.6367C24.7188 60.1836 24.4453 60.6758 24.1172 61.1133C23.9531 61.3867 23.8984 61.6875 23.9531 62.0156C24.0078 62.3438 24.1445 62.6172 24.3633 62.8359L25.1836 63.6562L23.0508 65.7891L22.2305 64.9688C22.0117 64.75 21.7383 64.6133 21.4102 64.5586C21.082 64.5039 20.7812 64.5586 20.5078 64.7227C20.0156 65.0508 19.4961 65.3242 18.9492 65.543C18.4023 65.7617 17.8555 65.9531 17.3086 66.1172C16.9805 66.1719 16.7207 66.3223 16.5293 66.5684C16.3379 66.8145 16.2422 67.1016 16.2422 67.4297V67.6758H13.5352V67.4297C13.5352 67.1016 13.4395 66.8145 13.248 66.5684C13.0566 66.3223 12.7969 66.1445 12.4688 66.0352C11.9219 65.9258 11.3887 65.7617 10.8691 65.543C10.3496 65.3242 9.81641 65.0508 9.26953 64.7227C8.99609 64.5586 8.70898 64.5039 8.4082 64.5586C8.10742 64.6133 7.84766 64.75 7.62891 64.9688L6.80859 65.7891L4.59375 63.6562L5.49609 62.7539C5.71484 62.5352 5.83789 62.2754 5.86523 61.9746C5.89258 61.6738 5.82422 61.3867 5.66016 61.1133C5.33203 60.6211 5.05859 60.1016 4.83984 59.5547C4.62109 59.0078 4.45703 58.4609 4.34766 57.9141C4.29297 57.5859 4.14258 57.3262 3.89648 57.1348C3.65039 56.9434 3.36328 56.8477 3.03516 56.8477H2.70703V54.1406H3.03516C3.36328 54.1406 3.65039 54.0449 3.89648 53.8535C4.14258 53.6621 4.29297 53.4023 4.34766 53.0742C4.51172 52.5273 4.70312 51.9805 4.92188 51.4336C5.14062 50.8867 5.38672 50.3672 5.66016 49.875C5.82422 49.6016 5.89258 49.3145 5.86523 49.0137C5.83789 48.7129 5.71484 48.4531 5.49609 48.2344L4.59375 47.4141L6.80859 45.1992L7.62891 46.1016C7.84766 46.3203 8.10742 46.4434 8.4082 46.4707C8.70898 46.498 8.99609 46.4297 9.26953 46.2656C9.76172 45.9375 10.2812 45.6641 10.8281 45.4453C11.375 45.2266 11.9219 45.0625 12.4688 44.9531C12.7969 44.8984 13.0566 44.748 13.248 44.502C13.4395 44.2559 13.5352 43.9688 13.5352 43.6406V43.3125H16.2422V43.6406C16.2422 43.9688 16.3379 44.2559 16.5293 44.502C16.7207 44.748 16.9805 44.8984 17.3086 44.9531C17.8555 45.0625 18.4023 45.2266 18.9492 45.4453C19.4961 45.6641 20.0156 45.9375 20.5078 46.2656C20.7812 46.4297 21.0684 46.498 21.3691 46.4707C21.6699 46.4434 21.9297 46.3203 22.1484 46.1016L23.0508 45.1992L25.1836 47.4141L24.3633 48.2344C24.1445 48.4531 24.0078 48.7129 23.9531 49.0137C23.8984 49.3145 23.9531 49.6016 24.1172 49.875C24.4453 50.4219 24.7188 50.9551 24.9375 51.4746C25.1562 51.9941 25.3203 52.5273 25.4297 53.0742C25.5391 53.4023 25.7168 53.6621 25.9629 53.8535C26.209 54.0449 26.4961 54.1406 26.8242 54.1406H27.0703V56.8477ZM29.7773 54.1406V52.8281C29.7773 52.4453 29.6543 52.1172 29.4082 51.8438C29.1621 51.5703 28.8477 51.4336 28.4648 51.4336H27.8086C27.6992 51.1055 27.5762 50.7773 27.4395 50.4492C27.3027 50.1211 27.1523 49.793 26.9883 49.4648L28.0547 48.3164C28.3281 48.043 28.4648 47.7285 28.4648 47.373C28.4648 47.0176 28.3281 46.7031 28.0547 46.4297L23.9531 42.3281C23.7344 42.1094 23.4336 42 23.0508 42C22.668 42 22.3398 42.1094 22.0664 42.3281L21 43.4766C20.6719 43.2578 20.3301 43.0801 19.9746 42.9434C19.6191 42.8066 19.2773 42.6836 18.9492 42.5742V42C18.9492 41.6172 18.8262 41.2891 18.5801 41.0156C18.334 40.7422 18.0195 40.6055 17.6367 40.6055H13.5352V37.8984H20.3438C20.7266 37.8984 21.041 37.7617 21.2871 37.4883C21.5332 37.2148 21.6562 36.9141 21.6562 36.5859V29.7773H24.3633V31.0898C24.3633 31.4727 24.5 31.8008 24.7734 32.0742C25.0469 32.3477 25.375 32.4844 25.7578 32.4844H27.0703V42C27.0703 42.3281 27.207 42.6289 27.4805 42.9023C27.7539 43.1758 28.082 43.3125 28.4648 43.3125H32.4844V54.1406H29.7773ZM35.1914 56.8477V54.1406H43.3945V56.8477H35.1914ZM68.8242 39.457C69.7539 39.6211 70.6426 39.8809 71.4902 40.2363C72.3379 40.5918 73.1445 41.043 73.9102 41.5898C74.1836 41.7539 74.4844 41.8223 74.8125 41.7949C75.1406 41.7676 75.4141 41.6445 75.6328 41.4258L75.8789 41.1797L78.0117 43.3125L77.7656 43.5586C77.5469 43.7773 77.4238 44.0508 77.3965 44.3789C77.3691 44.707 77.4375 45.0078 77.6016 45.2812C78.1484 46.0469 78.5996 46.8535 78.9551 47.7012C79.3105 48.5488 79.5703 49.4375 79.7344 50.3672C79.7891 50.6953 79.9395 50.9551 80.1855 51.1465C80.4316 51.3379 80.7188 51.4336 81.0469 51.4336H81.293V54.1406H81.0469C80.7188 54.1406 80.4316 54.25 80.1855 54.4688C79.9395 54.6875 79.7891 54.9609 79.7344 55.2891C79.5156 56.2188 79.2422 57.1074 78.9141 57.9551C78.5859 58.8027 78.1484 59.6094 77.6016 60.375C77.4375 60.6484 77.3691 60.9355 77.3965 61.2363C77.4238 61.5371 77.5469 61.8242 77.7656 62.0977L78.0117 62.2617L75.8789 64.4766L75.6328 64.2305C75.4141 64.0117 75.1406 63.8887 74.8125 63.8613C74.4844 63.834 74.1836 63.9023 73.9102 64.0664C73.1445 64.5586 72.3379 64.9824 71.4902 65.3379C70.6426 65.6934 69.7539 65.9531 68.8242 66.1172C68.4961 66.1719 68.2363 66.3223 68.0449 66.5684C67.8535 66.8145 67.7578 67.1016 67.7578 67.4297V67.6758H65.0508V67.4297C65.0508 67.1016 64.9414 66.8145 64.7227 66.5684C64.5039 66.3223 64.2305 66.1719 63.9023 66.1172C63.0273 65.9531 62.166 65.6934 61.3184 65.3379C60.4707 64.9824 59.6367 64.5586 58.8164 64.0664C58.543 63.8477 58.2559 63.7656 57.9551 63.8203C57.6543 63.875 57.3945 64.0117 57.1758 64.2305L56.9297 64.4766L54.7969 62.2617L54.9609 62.0156C55.2344 61.7969 55.3848 61.5371 55.4121 61.2363C55.4395 60.9355 55.3438 60.6484 55.125 60.375C54.6328 59.5547 54.209 58.7207 53.8535 57.873C53.498 57.0254 53.2383 56.1641 53.0742 55.2891C53.0195 54.9609 52.8691 54.6875 52.623 54.4688C52.377 54.25 52.0898 54.1406 51.7617 54.1406H51.5156V51.4336H51.7617C52.0898 51.4336 52.377 51.3379 52.623 51.1465C52.8691 50.9551 53.0195 50.6953 53.0742 50.3672C53.2383 49.4375 53.498 48.5488 53.8535 47.7012C54.209 46.8535 54.6328 46.0469 55.125 45.2812C55.2891 45.0078 55.3574 44.707 55.3301 44.3789C55.3027 44.0508 55.1797 43.7773 54.9609 43.5586L54.7148 43.3125L56.9297 41.1797L57.0938 41.4258C57.3672 41.6445 57.6543 41.7676 57.9551 41.7949C58.2559 41.8223 58.543 41.7539 58.8164 41.5898C59.582 41.043 60.3887 40.6055 61.2363 40.2773C62.084 39.9492 62.9727 39.6758 63.9023 39.457C64.2305 39.4023 64.5039 39.252 64.7227 39.0059C64.9414 38.7598 65.0508 38.4727 65.0508 38.1445V37.8984H67.7578V38.1445C67.7578 38.4727 67.8535 38.7598 68.0449 39.0059C68.2363 39.252 68.4961 39.4023 68.8242 39.457ZM65.0508 35.1914H63.6562C63.2734 35.1914 62.959 35.3281 62.7129 35.6016C62.4668 35.875 62.3438 36.2031 62.3438 36.5859V37.0781C61.6328 37.2422 60.9355 37.4609 60.252 37.7344C59.5684 38.0078 58.8984 38.3359 58.2422 38.7188L57.832 38.3086C57.7227 38.1992 57.5859 38.1035 57.4219 38.0215C57.2578 37.9395 57.0938 37.8984 56.9297 37.8984C56.7109 37.8984 56.5195 37.9395 56.3555 38.0215C56.1914 38.1035 56.0547 38.1992 55.9453 38.3086L51.8438 42.3281C51.625 42.6016 51.5156 42.9297 51.5156 43.3125C51.5156 43.6953 51.625 44.0234 51.8438 44.2969L52.3359 44.707C51.9531 45.3086 51.625 45.9512 51.3516 46.6348C51.0781 47.3184 50.8594 48.0156 50.6953 48.7266H50.1211C49.7383 48.7266 49.4238 48.8633 49.1777 49.1367C48.9316 49.4102 48.8086 49.7383 48.8086 50.1211V54.1406H46.1016V42.6562L60.0469 32.4844H65.0508V35.1914ZM56.9297 52.8281C56.9297 55.4531 57.8457 57.6816 59.6777 59.5137C61.5098 61.3457 63.7383 62.2617 66.3633 62.2617C68.9883 62.2617 71.2305 61.3457 73.0898 59.5137C74.9492 57.6816 75.8789 55.4531 75.8789 52.8281C75.8789 50.2031 74.9492 47.9609 73.0898 46.1016C71.2305 44.2422 68.9883 43.3125 66.3633 43.3125C63.7383 43.3125 61.5098 44.2422 59.6777 46.1016C57.8457 47.9609 56.9297 50.2031 56.9297 52.8281ZM73.1719 52.8281C73.1719 54.6875 72.502 56.2734 71.1621 57.5859C69.8223 58.8984 68.2227 59.5547 66.3633 59.5547C64.5039 59.5547 62.918 58.8984 61.6055 57.5859C60.293 56.2734 59.6367 54.6875 59.6367 52.8281C59.6367 50.9688 60.293 49.3691 61.6055 48.0293C62.918 46.6895 64.5039 46.0195 66.3633 46.0195C68.2227 46.0195 69.8223 46.6895 71.1621 48.0293C72.502 49.3691 73.1719 50.9688 73.1719 52.8281Z" fill="white"/>
</svg>
