<svg width="84" height="85" viewBox="0 0 84 85" fill="none" xmlns="http://www.w3.org/2000/svg">
<g filter="url(#filter0_d_4137_145)">
<path d="M82.7695 81.2109H80.0625C79.8984 80.2812 79.5293 79.4473 78.9551 78.709C78.3809 77.9707 77.6836 77.4102 76.8633 77.0273C76.2617 76.7539 75.6738 76.5898 75.0996 76.5352C74.5254 76.4805 74.0195 76.4805 73.582 76.5352C73.3633 75.7695 73.0078 75.0859 72.5156 74.4844C72.0234 73.8828 71.4219 73.418 70.7109 73.0898C70.0547 72.7617 69.4121 72.5977 68.7832 72.5977C68.1543 72.5977 67.6211 72.625 67.1836 72.6797C67.1836 72.625 67.1836 71.8594 67.1836 70.3828C67.1836 68.9062 67.1836 67.3066 67.1836 65.584C67.1836 63.8613 67.1836 62.2891 67.1836 60.8672C67.1836 59.3906 67.1836 58.6523 67.1836 58.6523L71.2852 54.5508H74.8125C77.0547 54.5508 78.9688 53.7578 80.5547 52.1719C82.1406 50.5859 82.9336 48.6719 82.9336 46.4297V43.0664C82.9336 42.5742 82.7422 42.1367 82.3594 41.7539C81.9766 41.3711 81.5391 41.1797 81.0469 41.1797H77.6836C75.4414 41.1797 73.5273 41.9863 71.9414 43.5996C70.3555 45.2129 69.5625 47.1406 69.5625 49.3828V52.8281L67.1836 55.207V41.0977L69.6445 38.6367C71.2305 37.0508 72.0234 35.1367 72.0234 32.8945C72.0234 30.6523 71.2305 28.7383 69.6445 27.1523L67.2656 24.7734C67.1016 24.6094 66.9102 24.4727 66.6914 24.3633C66.4727 24.2539 66.2266 24.1992 65.9531 24.1992C65.6797 24.1992 65.4336 24.2539 65.2148 24.3633C64.9961 24.4727 64.8047 24.6094 64.6406 24.7734L62.2617 27.1523C60.6758 28.7383 59.8828 30.6523 59.8828 32.8945C59.8828 35.1367 60.6758 37.0508 62.2617 38.6367L64.7227 41.0977V62.5898L62.3438 60.2109V55.125C62.3438 52.1172 61.2773 49.5469 59.1445 47.4141C57.0117 45.2812 54.4414 44.2148 51.4336 44.2148H46.5117C45.9648 44.2148 45.5137 44.3926 45.1582 44.748C44.8027 45.1035 44.625 45.5547 44.625 46.1016V51.0234C44.625 54.0312 45.6914 56.6016 47.8242 58.7344C49.957 60.8672 52.5273 61.9336 55.5352 61.9336H60.6211L64.7227 66.0352V70.5469C63.793 69.6719 62.6035 68.8379 61.1543 68.0449C59.7051 67.252 58.0234 66.8008 56.1094 66.6914C56.0547 66.6914 55.8633 66.6777 55.5352 66.6504C55.207 66.623 54.7969 66.6367 54.3047 66.6914C53.9219 66.6914 53.6211 66.8281 53.4023 67.1016C53.1836 67.375 53.1016 67.6758 53.1562 68.0039C53.1562 68.332 53.293 68.6055 53.5664 68.8242C53.8398 69.043 54.1406 69.1523 54.4688 69.1523C54.9062 69.0977 55.248 69.084 55.4941 69.1113C55.7402 69.1387 55.8906 69.1523 55.9453 69.1523C58.4062 69.3164 60.3887 70.0547 61.8926 71.3672C63.3965 72.6797 64.4219 73.7188 64.9688 74.4844C65.2422 74.8672 65.584 75.127 65.9941 75.2637C66.4043 75.4004 66.8281 75.3867 67.2656 75.2227C67.5938 75.1133 67.9629 75.0449 68.373 75.0176C68.7832 74.9902 69.207 75.0859 69.6445 75.3047C70.082 75.5234 70.4375 75.8105 70.7109 76.166C70.9844 76.5215 71.1758 76.9453 71.2852 77.4375C71.4492 77.9844 71.75 78.4082 72.1875 78.709C72.625 79.0098 73.1172 79.1055 73.6641 78.9961C73.9375 78.9414 74.2656 78.9141 74.6484 78.9141C75.0312 78.9141 75.4141 79.0234 75.7969 79.2422C76.1797 79.4062 76.5215 79.666 76.8223 80.0215C77.123 80.377 77.3555 80.7734 77.5195 81.2109H39.0469C39.1016 80.8828 39.2246 80.5547 39.416 80.2266C39.6074 79.8984 39.8398 79.6523 40.1133 79.4883C40.3867 79.2695 40.6738 79.1465 40.9746 79.1191C41.2754 79.0918 41.5352 79.1055 41.7539 79.1602C42.3008 79.2148 42.793 79.0781 43.2305 78.75C43.668 78.4219 43.9414 78.0117 44.0508 77.5195C44.1602 76.7539 44.3652 76.043 44.666 75.3867C44.9668 74.7305 45.3086 74.1289 45.6914 73.582C46.1836 72.9258 46.7305 72.3379 47.332 71.8184C47.9336 71.2988 48.6172 70.8477 49.3828 70.4648C49.7109 70.3008 49.916 70.0547 49.998 69.7266C50.0801 69.3984 50.0664 69.0977 49.957 68.8242C49.793 68.4961 49.5469 68.2773 49.2188 68.168C48.8906 68.0586 48.5898 68.0859 48.3164 68.25C47.3867 68.7422 46.5391 69.3027 45.7734 69.9316C45.0078 70.5605 44.3242 71.2852 43.7227 72.1055C43.2305 72.7617 42.8203 73.4727 42.4922 74.2383C42.1641 75.0039 41.8906 75.7969 41.6719 76.6172C41.5625 76.6172 41.4395 76.6172 41.3027 76.6172C41.166 76.6172 41.043 76.6445 40.9336 76.6992C40.7148 75.8789 40.3594 75.1543 39.8672 74.5254C39.375 73.8965 38.7461 73.418 37.9805 73.0898C37.2148 72.707 36.4766 72.5293 35.7656 72.5566C35.0547 72.584 34.4805 72.6797 34.043 72.8438C33.2773 71.8047 31.9102 70.5059 29.9414 68.9473C27.9727 67.3887 25.5117 66.6094 22.5586 66.6094V58.8164L26.7422 54.7148H30.1875C32.4297 54.7148 34.3438 53.9219 35.9297 52.3359C37.5156 50.75 38.3086 48.8359 38.3086 46.5938V43.2305C38.3086 42.7383 38.1309 42.3008 37.7754 41.918C37.4199 41.5352 36.9688 41.3438 36.4219 41.3438H33.1406C30.8984 41.3438 28.9707 42.1504 27.3574 43.7637C25.7441 45.377 24.9375 47.3047 24.9375 49.5469V52.9922L22.5586 55.3711V36.668L26.7422 32.5664H30.1875C32.4297 32.5664 34.3438 31.7734 35.9297 30.1875C37.5156 28.6016 38.3086 26.6875 38.3086 24.4453V21.082C38.3086 20.5898 38.1309 20.1523 37.7754 19.7695C37.4199 19.3867 36.9688 19.1953 36.4219 19.1953H33.1406C30.8984 19.1953 28.9707 20.002 27.3574 21.6152C25.7441 23.2285 24.9375 25.1562 24.9375 27.3984V30.8438L22.5586 33.2227V16.8164L25.0195 14.3555C26.6055 12.7695 27.3984 10.8555 27.3984 8.61328C27.3984 6.37109 26.6055 4.45703 25.0195 2.87109L22.7227 0.492188C22.5039 0.328125 22.2852 0.205078 22.0664 0.123047C21.8477 0.0410156 21.6016 0 21.3281 0C21.1094 0 20.877 0.0410156 20.6309 0.123047C20.3848 0.205078 20.1797 0.328125 20.0156 0.492188L17.6367 2.87109C16.0508 4.45703 15.2578 6.37109 15.2578 8.61328C15.2578 10.8555 16.0508 12.7695 17.6367 14.3555L20.0977 16.8164V40.6055L17.7188 38.2266V33.1406C17.7188 32.3203 17.6367 31.5137 17.4727 30.7207C17.3086 29.9277 17.0352 29.1484 16.6523 28.3828C16.4883 28.1094 16.2559 27.918 15.9551 27.8086C15.6543 27.6992 15.3398 27.6992 15.0117 27.8086C14.7383 27.9727 14.5332 28.2188 14.3965 28.5469C14.2598 28.875 14.2734 29.1758 14.4375 29.4492C14.7109 30.0508 14.916 30.6523 15.0527 31.2539C15.1895 31.8555 15.2578 32.4844 15.2578 33.1406V35.7656L10.5 30.9258C10.2266 30.707 9.92578 30.5977 9.59766 30.5977C9.26953 30.5977 8.96875 30.707 8.69531 30.9258C8.47656 31.1992 8.36719 31.5 8.36719 31.8281C8.36719 32.1562 8.47656 32.4297 8.69531 32.6484L13.5352 37.4883H10.9102C8.61328 37.4883 6.63086 36.668 4.96289 35.0273C3.29492 33.3867 2.46094 31.3906 2.46094 29.0391V24.6914H6.80859C7.57422 24.6914 8.32617 24.7871 9.06445 24.9785C9.80273 25.1699 10.4727 25.457 11.0742 25.8398C11.4023 26.0039 11.7305 26.0449 12.0586 25.9629C12.3867 25.8809 12.6328 25.7031 12.7969 25.4297C12.9609 25.1016 13.002 24.7734 12.9199 24.4453C12.8379 24.1172 12.6602 23.8711 12.3867 23.707C11.5117 23.2148 10.6094 22.8457 9.67969 22.5996C8.75 22.3535 7.79297 22.2305 6.80859 22.2305H1.88672C1.33984 22.2305 0.888672 22.4082 0.533203 22.7637C0.177734 23.1191 0 23.5703 0 24.1172V29.0391C0 32.0469 1.06641 34.6172 3.19922 36.75C5.33203 38.8828 7.90234 39.9492 10.9102 39.9492H15.9961L20.0977 44.0508V65.2148L18.5391 63.6562V59.3086C18.5391 56.6836 17.6094 54.4277 15.75 52.541C13.8906 50.6543 11.6211 49.7109 8.94141 49.7109H4.75781C4.26562 49.7109 3.82812 49.9023 3.44531 50.2852C3.0625 50.668 2.87109 51.1055 2.87109 51.5977V55.7812C2.87109 58.4062 3.81445 60.6621 5.70117 62.5488C7.58789 64.4355 9.87109 65.3789 12.5508 65.3789H16.8164L18.6211 67.1836C17.3633 67.457 16.0371 67.9766 14.6426 68.7422C13.248 69.5078 12.0312 70.6289 10.9922 72.1055C10.5 72.7617 10.0898 73.4727 9.76172 74.2383C9.43359 75.0039 9.16016 75.7969 8.94141 76.6172C8.55859 76.6172 8.10742 76.6719 7.58789 76.7812C7.06836 76.8906 6.5625 77.1094 6.07031 77.4375C5.41406 77.8203 4.89453 78.3535 4.51172 79.0371C4.12891 79.7207 3.91016 80.4453 3.85547 81.2109H1.23047C0.902344 81.2109 0.615234 81.334 0.369141 81.5801C0.123047 81.8262 0 82.1133 0 82.4414C0 82.8242 0.123047 83.125 0.369141 83.3438C0.615234 83.5625 0.902344 83.6719 1.23047 83.6719H82.7695C83.0977 83.6719 83.3848 83.5625 83.6309 83.3438C83.877 83.125 84 82.8242 84 82.4414C84 82.1133 83.877 81.8262 83.6309 81.5801C83.3848 81.334 83.0977 81.2109 82.7695 81.2109ZM72.0234 49.3828C72.0234 47.7969 72.584 46.4434 73.7051 45.3223C74.8262 44.2012 76.1523 43.6406 77.6836 43.6406H80.4727V46.4297C80.4727 47.9609 79.9121 49.2871 78.791 50.4082C77.6699 51.5293 76.3438 52.0898 74.8125 52.0898H73.7461L76.2891 49.6289C76.5078 49.3555 76.6172 49.0547 76.6172 48.7266C76.6172 48.3984 76.5078 48.125 76.2891 47.9062C76.0156 47.6328 75.7148 47.4961 75.3867 47.4961C75.0586 47.4961 74.7578 47.6328 74.4844 47.9062L72.0234 50.3672V49.3828ZM59.8828 57.75L55.043 52.9102C54.8242 52.6914 54.5371 52.582 54.1816 52.582C53.8262 52.582 53.5391 52.6914 53.3203 52.9102C53.1016 53.1836 52.9922 53.4844 52.9922 53.8125C52.9922 54.1406 53.1016 54.4141 53.3203 54.6328L58.1602 59.4727H55.5352C53.1836 59.4727 51.1875 58.6523 49.5469 57.0117C47.9062 55.3711 47.0859 53.375 47.0859 51.0234V46.6758H51.4336C53.7305 46.6758 55.7129 47.4961 57.3809 49.1367C59.0488 50.7773 59.8828 52.7734 59.8828 55.125V57.75ZM65.9531 32.8945C65.625 32.8945 65.3379 33.0176 65.0918 33.2637C64.8457 33.5098 64.7227 33.7969 64.7227 34.125V37.6523L63.9844 36.9141C62.8906 35.8203 62.3438 34.4805 62.3438 32.8945C62.3438 31.3086 62.8906 29.9688 63.9844 28.875L65.9531 26.9062L67.9219 28.875C69.0156 29.9688 69.5625 31.3086 69.5625 32.8945C69.5625 34.4805 69.0156 35.8203 67.9219 36.9141L67.1836 37.6523V34.125C67.1836 33.7969 67.0605 33.5098 66.8145 33.2637C66.5684 33.0176 66.2812 32.8945 65.9531 32.8945ZM27.3984 49.5469C27.3984 47.9609 27.959 46.6074 29.0801 45.4863C30.2012 44.3652 31.5547 43.8047 33.1406 43.8047H35.8477V46.5938C35.8477 48.125 35.3008 49.4512 34.207 50.5723C33.1133 51.6934 31.7734 52.2539 30.1875 52.2539H29.2031L31.6641 49.793C31.8828 49.5195 31.9922 49.2188 31.9922 48.8906C31.9922 48.5625 31.8828 48.2891 31.6641 48.0703C31.3906 47.7969 31.0898 47.6602 30.7617 47.6602C30.4336 47.6602 30.1602 47.7969 29.9414 48.0703L27.3984 50.5312V49.5469ZM27.3984 27.3984C27.3984 25.8125 27.959 24.459 29.0801 23.3379C30.2012 22.2168 31.5547 21.6562 33.1406 21.6562H35.8477V24.4453C35.8477 25.9766 35.3008 27.3027 34.207 28.4238C33.1133 29.5449 31.7734 30.1055 30.1875 30.1055H29.2031L31.6641 27.6445C31.8828 27.3711 31.9922 27.0703 31.9922 26.7422C31.9922 26.4141 31.8828 26.1406 31.6641 25.9219C31.3906 25.6484 31.0898 25.5117 30.7617 25.5117C30.4336 25.5117 30.1602 25.6484 29.9414 25.9219L27.3984 28.3828V27.3984ZM16.0781 61.1953L12.2227 57.3398C12.0039 57.0664 11.7168 56.9297 11.3613 56.9297C11.0059 56.9297 10.7188 57.0664 10.5 57.3398C10.2812 57.5586 10.1719 57.8457 10.1719 58.2012C10.1719 58.5566 10.2812 58.8438 10.5 59.0625L14.3555 62.918H12.5508C10.582 62.918 8.88672 62.2207 7.46484 60.8262C6.04297 59.4316 5.33203 57.75 5.33203 55.7812V52.1719H8.94141C10.9102 52.1719 12.5918 52.8691 13.9863 54.2637C15.3809 55.6582 16.0781 57.3398 16.0781 59.3086V61.1953ZM20.0977 9.84375V13.3711L19.4414 12.6328C18.293 11.5391 17.7188 10.2129 17.7188 8.6543C17.7188 7.0957 18.293 5.74219 19.4414 4.59375L21.3281 2.70703L23.2969 4.59375C24.3906 5.74219 24.9375 7.0957 24.9375 8.6543C24.9375 10.2129 24.3906 11.5391 23.2969 12.6328L22.5586 13.3711V9.84375C22.5586 9.51562 22.4492 9.22852 22.2305 8.98242C22.0117 8.73633 21.7109 8.61328 21.3281 8.61328C21 8.61328 20.7129 8.73633 20.4668 8.98242C20.2207 9.22852 20.0977 9.51562 20.0977 9.84375ZM36.5039 81.2109H21.4922C21.4375 81.2109 21.4102 81.2109 21.4102 81.2109C21.4102 81.2109 21.3828 81.2109 21.3281 81.2109C21.3281 81.2109 21.3145 81.2109 21.2871 81.2109C21.2598 81.2109 21.2461 81.2109 21.2461 81.2109H6.31641C6.37109 80.8828 6.49414 80.5547 6.68555 80.2266C6.87695 79.8984 7.10938 79.6523 7.38281 79.4883C7.65625 79.2695 7.94336 79.1465 8.24414 79.1191C8.54492 79.0918 8.80469 79.1055 9.02344 79.1602C9.57031 79.2148 10.0625 79.0781 10.5 78.75C10.9375 78.4219 11.2109 78.0117 11.3203 77.5195C11.4297 76.7539 11.6348 76.043 11.9355 75.3867C12.2363 74.7305 12.5781 74.1289 12.9609 73.582C14.7109 71.1211 16.8438 69.7676 19.3594 69.5215C21.875 69.2754 23.1602 69.1523 23.2148 69.1523C25.6758 69.3164 27.6582 70.0547 29.1621 71.3672C30.666 72.6797 31.6914 73.7188 32.2383 74.4844C32.5117 74.8672 32.8672 75.127 33.3047 75.2637C33.7422 75.4004 34.1523 75.3867 34.5352 75.2227C34.8633 75.1133 35.2324 75.0449 35.6426 75.0176C36.0527 74.9902 36.4766 75.0859 36.9141 75.3047C37.3516 75.5234 37.7207 75.8242 38.0215 76.207C38.3223 76.5898 38.5273 77.0273 38.6367 77.5195C38.0352 77.957 37.5566 78.5039 37.2012 79.1602C36.8457 79.8164 36.6133 80.5 36.5039 81.2109Z" fill="white"/>
</g>
<defs>
<filter id="filter0_d_4137_145" x="-4" y="0" width="92" height="91.6719" filterUnits="userSpaceOnUse" color-interpolation-filters="sRGB">
<feFlood flood-opacity="0" result="BackgroundImageFix"/>
<feColorMatrix in="SourceAlpha" type="matrix" values="0 0 0 0 0 0 0 0 0 0 0 0 0 0 0 0 0 0 127 0" result="hardAlpha"/>
<feOffset dy="4"/>
<feGaussianBlur stdDeviation="2"/>
<feComposite in2="hardAlpha" operator="out"/>
<feColorMatrix type="matrix" values="0 0 0 0 0 0 0 0 0 0 0 0 0 0 0 0 0 0 0.25 0"/>
<feBlend mode="normal" in2="BackgroundImageFix" result="effect1_dropShadow_4137_145"/>
<feBlend mode="normal" in="SourceGraphic" in2="effect1_dropShadow_4137_145" result="shape"/>
</filter>
</defs>
</svg>
